<svg width="125" height="35" viewBox="0 0 125 35" fill="none" xmlns="http://www.w3.org/2000/svg">
<path d="M22.6742 27.8398H26.8835L22.8202 12.1386L25.7273 6.91645H21.4732L19.6659 0H15.5464L0 27.8514H4.70326L16.9719 5.88364L18.4311 11.5467L9.339 27.8398H14.0423L19.9353 17.3143L22.6742 27.8398Z" fill="white"/>
<path d="M32.9002 27.8514V6.90484H28.7694V27.8514H32.9002Z" fill="white"/>
<path fill-rule="evenodd" clip-rule="evenodd" d="M49.7597 27.8979V13.7285L45.6179 13.7865V14.5524C44.5627 13.8445 43.2269 13.4267 41.7115 13.4267C37.9512 13.4267 34.9205 16.2583 34.9205 20.4824C34.9205 24.1147 37.94 27.2712 41.7115 27.2712C43.2157 27.2712 44.5627 26.8535 45.6179 26.1456V27.9559C45.6179 30.2537 44.1361 31.1356 42.5422 31.1356C40.8585 31.1356 39.5788 30.4858 39.4104 28.9771L35.291 28.9539C35.5716 32.4934 38.4901 35 42.3962 35C46.4483 35 49.7597 32.2961 49.7597 27.8979ZM45.6291 18.6257V22.0723C44.7872 23.3256 43.6198 23.755 42.4635 23.7666C40.4319 23.7666 39.0176 22.0491 39.0176 20.4824C39.0176 18.3472 40.4319 16.943 42.4635 16.943C43.6198 16.943 44.7872 17.3607 45.6291 18.6257Z" fill="white"/>
<path fill-rule="evenodd" clip-rule="evenodd" d="M66.2379 20.6217C66.2379 24.9851 63.1173 28.0952 58.9305 28.0952C54.71 28.0952 51.5894 24.9851 51.5894 20.6217C51.5894 16.2931 54.71 13.125 58.9305 13.125C63.1173 13.125 66.2379 16.2931 66.2379 20.6217ZM62.253 20.6217C62.253 18.5676 60.951 16.9082 58.9305 16.9082C56.8875 16.9082 55.5854 18.5676 55.5854 20.6217C55.5854 22.7337 56.8875 24.312 58.9305 24.312C60.9398 24.3004 62.253 22.7337 62.253 20.6217Z" fill="white"/>
<path fill-rule="evenodd" clip-rule="evenodd" d="M91.8867 27.8283V13.7517L87.8345 13.7633V14.564C86.7794 13.8561 85.4435 13.4151 83.9282 13.4151C80.1679 13.4151 77.1372 16.7225 77.1372 20.8189C77.1372 24.8922 80.1567 28.1996 83.9282 28.1996C85.4324 28.1996 86.7794 27.7586 87.8345 27.0507V27.8514L91.8867 27.8283ZM87.8345 18.6605V22.9774C86.9813 24.2308 85.7915 24.5673 84.6017 24.5789C82.5251 24.5789 81.0882 22.8614 81.0882 20.8306C81.0882 18.7766 82.5251 17.059 84.6017 17.059C85.7915 17.059 86.9813 17.4072 87.8345 18.6605Z" fill="white"/>
<path d="M108.544 20.2039V27.8514H104.56V20.703C104.56 18.4052 103.448 17.1867 101.473 17.1867C100.44 17.1867 99.3063 17.8018 98.3298 18.9854V27.8514H94.2551V13.7749H98.3298V14.8425C99.4409 13.9257 100.732 13.4267 102.27 13.4267C105.907 13.4267 108.544 16.0726 108.544 20.2039Z" fill="white"/>
<path fill-rule="evenodd" clip-rule="evenodd" d="M125 6.90484V27.8514H120.869V27.0507C119.814 27.7586 118.467 28.1996 116.963 28.1996C113.192 28.1996 110.172 24.8922 110.172 20.7957C110.172 16.7225 113.203 13.4151 116.963 13.4151C118.478 13.4151 119.814 13.8561 120.869 14.564V6.89322L125 6.90484ZM120.869 22.9891V18.6373C120.005 17.3723 118.804 17.0242 117.614 17.0242C115.526 17.0242 114.078 18.7533 114.078 20.7957C114.078 22.873 115.526 24.6021 117.614 24.6021C118.804 24.6021 120.005 24.254 120.869 22.9891Z" fill="white"/>
<path d="M76.1607 17.3542C76.2462 17.3443 76.3251 17.3351 76.3964 17.3259V13.74C74.4881 13.5427 73.085 14.0302 72.1535 14.8541V13.7981H68.0788V27.863H72.1535V19.3103C73.2902 17.6865 75.1686 17.469 76.1607 17.3542Z" fill="white"/>
</svg>
