<svg width="146" height="27" viewBox="0 0 146 27" fill="none" xmlns="http://www.w3.org/2000/svg">
<path d="M19.3395 8.56927H27.5848V11.8791H0V8.56927H8.24533L2.45507 0H6.83252L13.7808 10.3375L20.7524 0H25.1297L19.3395 8.56927Z" fill="white"/>
<path d="M19.1774 18.3174L25.0372 27H20.6597L13.7808 16.7985L6.902 27H2.54772L8.40746 18.34H0V15.0529H27.5848V18.3174H19.1774Z" fill="white"/>
<path d="M45.3625 20.5909C44.3121 19.7501 43.7185 18.6438 43.6043 17.2497L39.7225 17.1834C39.7453 18.7322 40.1563 20.1041 40.9783 21.299C41.8003 22.4938 42.9421 23.4453 44.4034 24.1092C45.8649 24.7951 47.5546 25.1269 49.4726 25.1269C51.208 25.1269 52.7608 24.8172 54.1308 24.1977C55.5008 23.5781 56.5741 22.7373 57.3276 21.6309C58.0811 20.5245 58.4693 19.2855 58.4693 17.8914C58.4693 16.4532 58.104 15.3026 57.3961 14.4175C56.6654 13.5324 55.7521 12.8686 54.6103 12.426C53.4686 11.9614 52.1214 11.6073 50.5459 11.3418C48.9931 11.0763 47.7829 10.8329 46.9609 10.6116C46.1389 10.3682 45.4767 10.0363 44.9743 9.59378C44.472 9.15124 44.2209 8.53168 44.2209 7.77937C44.2209 6.71726 44.6318 5.87643 45.4767 5.27901C46.3216 4.68157 47.4404 4.39392 48.8562 4.39392C50.3175 4.39392 51.5049 4.77008 52.4639 5.50027C53.4001 6.23046 53.9481 7.20406 54.0852 8.42105H58.0127C57.9441 7.00491 57.5103 5.76579 56.7339 4.65944C55.9576 3.55309 54.8843 2.69013 53.5143 2.07057C52.1442 1.42889 50.5915 1.11911 48.8562 1.11911C47.1664 1.11911 45.6594 1.42889 44.3578 2.00419C43.0334 2.5795 42.0287 3.3982 41.2981 4.4603C40.5674 5.5224 40.2019 6.71726 40.2019 8.06701C40.2019 9.5274 40.5445 10.7001 41.2523 11.6073C41.9603 12.4924 42.8736 13.1562 43.9925 13.5988C45.1113 14.0414 46.4585 14.3953 48.034 14.6609C49.5868 14.9265 50.7742 15.1919 51.6419 15.4353C52.5095 15.6788 53.1717 16.0327 53.6741 16.4974C54.1765 16.9399 54.4277 17.5817 54.4277 18.3561C54.4277 19.4404 53.971 20.3033 53.0575 20.9228C52.1442 21.5424 50.9569 21.8522 49.4726 21.8522C47.7829 21.8522 46.4129 21.4317 45.3625 20.5909Z" fill="white"/>
<path d="M59.611 10.8993H62.6936V20.2369C62.6936 21.83 63.0818 23.0249 63.8582 23.7772C64.6346 24.5517 65.8675 24.9279 67.5573 24.9279H71.165V21.7194H68.3108C67.6486 21.7194 67.1691 21.5866 66.8951 21.299C66.6211 21.0114 66.4841 20.5245 66.4841 19.8607V10.8771H70.7541V7.69086H66.4841V2.88927H62.6936V7.71298H59.611V10.8993Z" fill="white"/>
<path fill-rule="evenodd" clip-rule="evenodd" d="M90.0489 24.9279V7.71298H86.7608L86.3041 10.2355C85.7105 9.39464 84.9341 8.73082 83.9521 8.24402C82.9932 7.75723 81.8515 7.51383 80.5271 7.51383C78.9515 7.51383 77.5129 7.86786 76.2342 8.59807C74.9784 9.32826 73.9736 10.3682 73.243 11.6959C72.5123 13.0235 72.1469 14.5724 72.1469 16.3204C72.1469 18.1127 72.5123 19.6837 73.2201 21.0114C73.9509 22.3389 74.9327 23.3568 76.2114 24.0649C77.4902 24.773 78.9287 25.1269 80.5499 25.1269C81.8515 25.1269 82.9703 24.8615 83.9521 24.3525C84.9341 23.8215 85.7332 23.1577 86.3498 22.2948L86.7608 24.9279H90.0489ZM86.3269 16.3868C86.3269 18.0684 85.8703 19.4182 84.9112 20.4802C83.975 21.5424 82.7192 22.0735 81.1664 22.0735C79.6137 22.0735 78.3806 21.5424 77.4216 20.4802C76.4855 19.4182 76.0058 18.0242 76.0058 16.3204C76.0058 14.6388 76.4626 13.2668 77.4216 12.2048C78.3578 11.1427 79.6137 10.6116 81.1664 10.6116C82.7192 10.6116 83.9521 11.1427 84.9112 12.2269C85.8474 13.289 86.3269 14.683 86.3269 16.3868Z" fill="white"/>
<path d="M101.923 25.1269C104.183 25.1269 106.01 24.5517 107.449 23.4232C108.864 22.2948 109.778 20.7458 110.12 18.7322H106.307C106.078 19.7501 105.576 20.5466 104.823 21.1441C104.069 21.7415 103.11 22.0292 101.945 22.0292C100.438 22.0292 99.2283 21.4981 98.3148 20.4361C97.4015 19.374 96.9448 17.9799 96.9448 16.2762C96.9448 14.5945 97.4015 13.2447 98.3148 12.1826C99.2283 11.1427 100.438 10.6116 101.945 10.6116C103.064 10.6116 104.001 10.9214 104.754 11.4967C105.53 12.072 106.033 12.8465 106.284 13.8422H110.143C109.778 11.895 108.91 10.3461 107.494 9.21762C106.078 8.08914 104.252 7.51383 102.037 7.51383C100.256 7.51383 98.6803 7.86786 97.333 8.59807C95.963 9.32826 94.9126 10.3461 94.1819 11.6737C93.4284 13.0014 93.063 14.5281 93.063 16.2762C93.063 18.0242 93.4284 19.573 94.159 20.9228C94.8897 22.2726 95.9173 23.3125 97.2645 24.0428C98.6117 24.773 100.164 25.1269 101.923 25.1269Z" fill="white"/>
<path d="M116.879 1.38464H113.157V24.9279H116.902V20.5245L120.053 17.294L125.328 24.9279H129.78L122.725 14.6388L129.347 7.71298H125.008L116.879 16.1212V1.38464Z" fill="white"/>
<path d="M135.352 21.4538C134.553 20.8786 134.119 20.1484 134.051 19.2412V19.2633H130.397C130.442 21.0999 131.219 22.5381 132.68 23.5781C134.141 24.6181 136.082 25.1492 138.458 25.1492C139.872 25.1492 141.129 24.9279 142.271 24.4853C143.413 24.0428 144.302 23.4232 144.943 22.6045C145.605 21.7858 145.924 20.8565 145.924 19.7722C145.924 18.5553 145.605 17.6038 144.988 16.8957C144.371 16.1876 143.55 15.6788 142.499 15.3468C141.449 15.0149 140.17 14.7715 138.64 14.6166C137.498 14.4839 136.676 14.3732 136.174 14.2626C135.671 14.1741 135.26 13.997 134.919 13.7316C134.576 13.4881 134.416 13.0898 134.416 12.5809C134.416 11.895 134.758 11.3418 135.42 10.9435C136.106 10.5452 136.973 10.3461 138.068 10.3461C139.165 10.3461 140.078 10.5895 140.787 11.0984C141.494 11.5852 141.905 12.249 141.997 13.0235H145.65C145.513 11.2754 144.759 9.92568 143.366 8.9521C141.974 8.00063 140.146 7.51383 137.909 7.51383C136.562 7.51383 135.328 7.73511 134.255 8.17765C133.183 8.62018 132.338 9.26187 131.721 10.0806C131.105 10.8993 130.808 11.8286 130.808 12.8907C130.808 14.0191 131.105 14.9042 131.721 15.5681C132.314 16.2319 133.137 16.6966 134.141 17.0063C135.146 17.3161 136.425 17.5596 137.978 17.7365C139.096 17.8693 139.941 17.9799 140.489 18.1127C141.037 18.2233 141.472 18.4446 141.791 18.7322C142.111 19.0199 142.271 19.4625 142.271 20.0378C142.271 20.7237 141.928 21.2769 141.22 21.6973C140.512 22.1177 139.6 22.3169 138.458 22.3169C137.179 22.3169 136.151 22.0292 135.352 21.4538Z" fill="white"/>
</svg>
