<svg width="113" height="28" viewBox="0 0 113 28" fill="none" xmlns="http://www.w3.org/2000/svg">
<path d="M22.1078 1.42154C22.6421 0.537663 23.5893 0 24.6094 0C26.2307 0 27.5443 1.33538 27.5443 2.98268V25.0189C27.5428 26.6662 26.2284 28.0008 24.6079 28H24.0092C23.1468 27.9992 22.3275 27.6131 21.7696 26.9438L4.64086 6.09379C4.59764 6.04034 4.5325 6.01003 4.46506 6.01003C4.33785 6.01003 4.23517 6.11373 4.23517 6.24296V21.8919C4.2344 21.9501 4.25478 22.0067 4.29325 22.0506C4.37786 22.1463 4.52315 22.1551 4.61726 22.0689L10.2845 17.072C10.4925 16.8901 10.7946 16.871 11.023 17.0258C11.3047 17.2164 11.3807 17.6025 11.1932 17.8889L5.43569 26.5785C4.90141 27.4623 3.95423 28 2.9341 28C1.31363 28 0 26.6646 0 25.0173V2.98268C0 1.33538 1.31363 0 2.9341 0H3.53275C4.39517 0.0007985 5.21438 0.386895 5.77241 1.05618L22.9034 21.9022C22.9467 21.9557 23.011 21.986 23.0792 21.986C23.2064 21.986 23.3091 21.8823 23.3091 21.753V6.10815C23.3091 6.04991 23.2887 5.99328 23.2503 5.9494C23.1657 5.85368 23.0204 5.8449 22.9263 5.93105L17.259 10.928C17.051 11.1099 16.7489 11.129 16.5206 10.9742C16.2389 10.7836 16.1628 10.3975 16.3503 10.1111L22.1078 1.42154Z" fill="white"/>
<path d="M78.6843 10.4103C78.6843 6.70564 82.7837 3.88889 87.5289 3.88889L87.5272 3.88809C92.8422 3.88809 95.9928 6.8596 95.9928 11.3356V23.0286C95.9928 23.3756 95.7268 23.646 95.3854 23.646H92.6523C92.3102 23.646 92.1586 23.299 92.3485 23.0286L93.4872 21.2146C93.6771 20.945 93.7532 20.5971 93.5256 20.3658C93.2604 20.0954 92.9568 20.0954 92.653 20.3658L90.7925 21.9868C89.5401 23.0669 87.528 23.993 85.1748 23.993C81.4927 23.993 78.2661 22.1798 78.2661 18.7066V18.1665C78.2661 14.7706 81.8727 12.4556 85.4407 12.4556H89.6538C89.9583 12.4556 90.2996 12.6104 90.3373 12.9191C90.4135 13.3044 90.2612 13.6522 89.8438 13.7679L85.782 14.8871C82.9736 15.5428 82.29 16.662 82.29 17.9742C82.29 19.4795 83.6947 20.4057 86.1243 20.4057C89.2372 20.4057 91.7428 18.6691 91.7428 15.2349V11.8773C91.7428 9.0988 89.996 7.47783 87.415 7.47783C85.2516 7.47783 83.2397 8.71271 82.9359 10.4103C82.8974 10.719 82.6698 10.9503 82.3662 10.9503H79.2917C78.9504 10.9503 78.6843 10.719 78.6843 10.4103Z" fill="white"/>
<path d="M66.3477 3.88889C60.464 3.88889 56.706 7.55521 56.706 12.533V15.2732C56.706 20.5214 60.464 24.1103 66.3477 24.1103C71.5482 24.1103 75.1923 21.3701 75.5721 17.6655C75.6106 17.2794 75.3445 17.0098 74.9647 17.0098H72.004C71.7381 17.0098 71.5105 17.1646 71.4343 17.4342C71.0545 18.6691 69.2708 20.5214 66.3477 20.5214C63.4247 20.5214 60.6915 18.3603 60.7292 15.2732L60.7677 11.839C60.8054 9.25356 63.4631 7.47863 66.3477 7.47863C68.9672 7.47863 71.5105 8.98393 71.7756 11.4537C71.7977 11.7393 71.6046 11.9969 71.3276 12.0512L62.8165 13.7304C62.4752 13.8077 62.2093 14.1165 62.2093 14.5018V14.5401C62.2093 14.8871 62.5506 15.1958 63.0441 15.1958H75.2677C75.6035 15.1958 75.875 14.919 75.875 14.5783V12.1477C75.875 7.55601 71.9647 3.88969 66.347 3.88969L66.3477 3.88889Z" fill="white"/>
<path d="M46.7235 3.96627C44.6355 3.96627 43.1171 4.46803 41.8269 5.62552L39.5489 7.63179C39.359 7.78655 38.9792 7.90222 38.7139 7.67008C38.448 7.43874 38.4103 7.13003 38.6379 6.82131L39.8525 4.969C40.0424 4.69857 39.891 4.35157 39.5489 4.35157H36.6258C36.2845 4.35157 36.0185 4.62199 36.0185 4.969V23.0294C36.0185 23.3764 36.2845 23.6468 36.6258 23.6468H39.6626C40.004 23.6468 40.27 23.3764 40.27 23.0294V12.8417C40.27 8.17265 44.1041 7.43954 45.5465 7.43954C48.621 7.43954 49.722 9.67795 49.722 11.3755V23.0294C49.722 23.3764 49.9879 23.6468 50.3293 23.6468H53.3662C53.7075 23.6468 53.9736 23.3764 53.9736 23.0294V10.9894C53.9736 6.66735 51.2019 3.96627 46.7235 3.96627Z" fill="white"/>
<path d="M112.392 4.35236H108.14C106.66 4.35236 105.217 5.27852 104.192 6.16638L102.522 7.63259C102.332 7.78735 101.99 7.90302 101.763 7.70997C101.497 7.51692 101.383 7.13083 101.611 6.82211L102.826 4.9698C103.016 4.69937 102.865 4.35236 102.522 4.35236H99.6755C99.3341 4.35236 99.0681 4.62279 99.0681 4.9698V23.0302C99.0681 23.3772 99.3341 23.6476 99.6755 23.6476H102.788C103.13 23.6476 103.396 23.3772 103.396 23.0302V13.7687C103.396 9.79362 104.99 8.01869 108.445 8.01869H112.393C112.734 8.01869 113 7.74826 113 7.40125V4.9698C113 4.62279 112.734 4.35236 112.392 4.35236Z" fill="white"/>
</svg>
