<svg width="165" height="25" viewBox="0 0 165 25" fill="none" xmlns="http://www.w3.org/2000/svg">
<path d="M27.3333 19.0329L22.7973 23.8105C22.6992 23.9143 22.5804 23.9971 22.4482 24.0538C22.3161 24.1105 22.1735 24.1398 22.0294 24.1399H0.527022C0.424468 24.1399 0.324155 24.1105 0.238366 24.0553C0.152579 24.0001 0.0850413 23.9215 0.0440205 23.8291C0.00299966 23.7368 -0.00972256 23.6347 0.00741275 23.5354C0.0245481 23.4361 0.0707934 23.3438 0.140492 23.2699L4.67134 18.4922C4.76946 18.3885 4.88826 18.3057 5.02039 18.249C5.15251 18.1923 5.29511 18.163 5.43928 18.1628H26.9416C27.045 18.1607 27.1469 18.1887 27.2342 18.2434C27.3215 18.298 27.3906 18.3767 27.4323 18.4697C27.4743 18.5627 27.4871 18.6658 27.4694 18.766C27.4518 18.8662 27.4044 18.9591 27.3333 19.0329ZM22.7973 9.40961C22.6988 9.30631 22.5799 9.22383 22.4479 9.16718C22.3158 9.11055 22.1734 9.08096 22.0294 9.08023H0.527022C0.424468 9.08028 0.324155 9.1097 0.238366 9.16492C0.152579 9.22011 0.0850413 9.29869 0.0440205 9.39103C0.00299966 9.48336 -0.00972256 9.58543 0.00741275 9.68475C0.0245481 9.78408 0.0707934 9.87636 0.140492 9.95027L4.67134 14.7305C4.76982 14.8338 4.88872 14.9162 5.02075 14.9729C5.15279 15.0295 5.29521 15.0591 5.43928 15.0598H26.9416C27.044 15.0593 27.1438 15.0295 27.2293 14.9741C27.3148 14.9188 27.3819 14.8401 27.4226 14.7479C27.4633 14.6557 27.4758 14.5538 27.4584 14.4547C27.4413 14.3556 27.3952 14.2636 27.3256 14.1898L22.7973 9.40961ZM0.527022 5.97723H22.0294C22.1735 5.9771 22.3161 5.94775 22.4482 5.89108C22.5804 5.83442 22.6992 5.75159 22.7973 5.64782L27.3333 0.870151C27.4044 0.796353 27.4518 0.703513 27.4694 0.60331C27.4871 0.503107 27.4743 0.400017 27.4323 0.307013C27.3906 0.21401 27.3215 0.135248 27.2342 0.080638C27.1469 0.0260281 27.045 -0.00198976 26.9416 0.000109938H5.43928C5.29511 0.000259011 5.15251 0.0295852 5.02039 0.0862601C4.88826 0.142935 4.76946 0.225742 4.67134 0.329519L0.140492 5.10719C0.0707934 5.18109 0.0245481 5.27337 0.00741275 5.3727C-0.00972256 5.47202 0.00299966 5.57409 0.0440205 5.66642C0.0850413 5.75876 0.152579 5.83734 0.238366 5.89254C0.324155 5.94775 0.424468 5.97718 0.527022 5.97723Z" fill="white"/>
<path fill-rule="evenodd" clip-rule="evenodd" d="M116.277 2.76639H105.014C104.517 2.76375 104.025 2.85719 103.566 3.04138C103.106 3.2256 102.687 3.49695 102.335 3.83996C101.982 4.18297 101.701 4.59093 101.508 5.04051C101.316 5.49012 101.215 5.97256 101.213 6.46029V21.3742H105.052V15.2613H116.264V21.3742H120.104V6.46029C120.101 5.97043 120 5.48592 119.806 5.03465C119.612 4.58342 119.329 4.17435 118.973 3.83098C118.617 3.48764 118.196 3.21682 117.733 3.03411C117.271 2.85141 116.776 2.76043 116.277 2.76639ZM116.249 11.5397H105.037V6.48795H116.249V11.5397Z" fill="white"/>
<path fill-rule="evenodd" clip-rule="evenodd" d="M64.2849 2.76635H75.8322C76.3288 2.76371 76.8208 2.85716 77.2805 3.04135C77.7403 3.22556 78.1588 3.49691 78.5115 3.83992C78.8645 4.18294 79.1454 4.5909 79.3378 5.04048C79.5303 5.49008 79.6309 5.97253 79.6335 6.46025V17.6803C79.6309 18.168 79.5303 18.6504 79.3378 19.1C79.1454 19.5496 78.8645 19.9576 78.5115 20.3006C78.1588 20.6436 77.7403 20.9149 77.2805 21.0992C76.8208 21.2834 76.3288 21.3768 75.8322 21.3742H64.2849C63.7876 21.3781 63.2943 21.2857 62.8333 21.1021C62.3725 20.9184 61.953 20.6473 61.5989 20.3042C61.2447 19.961 60.9631 19.5526 60.7701 19.1024C60.5768 18.6521 60.476 18.1688 60.4734 17.6803V6.46025C60.476 5.97167 60.5768 5.4884 60.7701 5.03814C60.9631 4.58788 61.2447 4.17949 61.5989 3.83635C61.953 3.49319 62.3725 3.22207 62.8333 3.03846C63.2943 2.85484 63.7876 2.76238 64.2849 2.76635ZM64.3131 17.6526H75.804L75.7989 6.48791H64.3131V17.6526Z" fill="white"/>
<path d="M42.0428 10.2094H53.5466C54.0434 10.2068 54.5362 10.3004 54.9962 10.4849C55.4562 10.6694 55.8747 10.9412 56.228 11.2848C56.581 11.6283 56.8615 12.0368 57.0538 12.487C57.246 12.9372 57.3458 13.4202 57.3479 13.9083V17.6802C57.3453 18.1679 57.2447 18.6504 57.0522 19.1C56.8597 19.5496 56.5789 19.9575 56.2259 20.3005C55.8732 20.6435 55.4546 20.9149 54.9949 21.0991C54.5352 21.2833 54.0432 21.3768 53.5466 21.3741H38.477V17.6525H53.5235V13.931H42.0044C41.5076 13.9336 41.0148 13.84 40.5548 13.6555C40.0948 13.471 39.6763 13.1992 39.323 12.8556C38.97 12.5121 38.6895 12.1035 38.4972 11.6533C38.305 11.2032 38.2052 10.7202 38.2031 10.232V6.46019C38.2057 5.97246 38.3063 5.49002 38.4988 5.04041C38.6913 4.59083 38.9721 4.18287 39.3251 3.83986C39.6778 3.49684 40.0964 3.2255 40.5561 3.04128C41.0158 2.85709 41.5078 2.76365 42.0044 2.76629H56.5364V6.48785H42.0428V10.2094Z" fill="white"/>
<path fill-rule="evenodd" clip-rule="evenodd" d="M149.849 2.76629H161.112C161.608 2.76365 162.1 2.85709 162.56 3.04128C163.02 3.2255 163.438 3.49684 163.791 3.83986C164.144 4.18287 164.425 4.59083 164.617 5.04041C164.81 5.49002 164.911 5.97246 164.913 6.46019V21.3741H161.073V15.2612H149.887V21.3741H146.047V6.46019C146.05 5.97246 146.151 5.49002 146.343 5.04041C146.536 4.59083 146.816 4.18287 147.169 3.83986C147.522 3.49684 147.941 3.2255 148.4 3.04128C148.86 2.85709 149.352 2.76365 149.849 2.76629ZM149.861 11.5396H161.073V6.48785H149.861V11.5396Z" fill="white"/>
<path d="M138.803 17.6525H137.267L131.777 4.3253C131.589 3.86551 131.265 3.47145 130.847 3.19369C130.429 2.91591 129.936 2.76707 129.432 2.76626H126.025C125.694 2.7646 125.365 2.82704 125.059 2.94998C124.752 3.07294 124.474 3.25399 124.238 3.48281C124.003 3.71167 123.816 3.98377 123.687 4.28365C123.559 4.58352 123.492 4.90528 123.491 5.23054V21.3741H127.33V6.48782H128.866L134.354 19.815C134.546 20.2739 134.872 20.6664 135.292 20.9423C135.711 21.2182 136.205 21.365 136.709 21.364H140.116C140.448 21.3657 140.776 21.3033 141.082 21.1803C141.389 21.0574 141.668 20.8763 141.903 20.6475C142.138 20.4186 142.326 20.1465 142.454 19.8466C142.582 19.5468 142.649 19.225 142.651 18.8997V2.76626H138.803V17.6525Z" fill="white"/>
<path d="M83.0254 2.76635H86.8651V17.6526H98.3586V21.3742H86.8395C86.3419 21.3785 85.8483 21.2862 85.3871 21.1028C84.9261 20.9193 84.506 20.6482 84.1517 20.3051C83.7974 19.9619 83.5156 19.5534 83.3223 19.1029C83.1291 18.6525 83.028 18.1691 83.0254 17.6803V2.76635Z" fill="white"/>
</svg>
