<svg width="139" height="32" viewBox="0 0 139 32" fill="none" xmlns="http://www.w3.org/2000/svg">
<path d="M18.775 25.4578L9.27532 16.0001L18.807 6.54225L24.809 12.5172C25.8677 13.5717 27.6009 13.5717 28.6603 12.5172C29.719 11.4628 29.719 9.73745 28.6603 8.68294L20.7327 0.790883C19.6739 -0.263628 17.9407 -0.263628 16.8814 0.790883L5.456 12.1658V5.45591C5.456 3.9541 4.23617 2.73999 2.728 2.73999C1.21983 2.73999 0 3.9541 0 5.45591V26.6081C0 28.1099 1.21983 29.324 2.728 29.324C4.23617 29.324 5.456 28.0779 5.456 26.6081V19.8343L16.8494 31.2091C17.9088 32.2636 19.6413 32.2636 20.7007 31.2091L28.6277 23.3171C29.687 22.2626 29.687 20.5372 28.6277 19.4828C27.5689 18.4283 25.8357 18.4283 24.7764 19.4828L18.775 25.4578Z" fill="white"/>
<path d="M16.079 16.0001C16.079 14.4983 17.2988 13.2842 18.807 13.2842C20.2832 13.2842 21.503 14.4983 21.535 16.0001C21.535 17.5017 20.3158 18.716 18.807 18.716C17.2988 18.716 16.079 17.5017 16.079 16.0001Z" fill="white"/>
<path d="M81.8399 16.0001C81.8399 15.1053 81.8399 14.3385 81.8725 13.7315C81.9045 13.1244 81.9365 12.6451 82.0004 12.2616C82.2894 10.632 83.5412 9.67348 85.1459 9.67348C86.2052 9.67348 87.1355 10.057 87.7454 10.9516C88.0024 11.3351 88.1948 11.7823 88.3233 12.2936C88.3233 12.3576 88.3553 12.3894 88.4192 12.3894H92.0141C92.0436 12.3894 92.0593 12.3827 92.068 12.3691C92.0781 12.3532 92.0781 12.3281 92.0781 12.2936C91.6932 10.089 90.5053 8.07588 88.3872 7.08549C87.4244 6.63804 86.3011 6.38249 85.0819 6.38249C83.0598 6.38249 81.3265 7.08549 79.9469 8.45937C79.1445 9.25817 78.6305 10.2167 78.4061 11.3031C78.1817 12.3576 78.0852 13.9232 78.0852 16.0001C78.0852 18.077 78.1817 19.6426 78.4061 20.6969C78.6305 21.7834 79.1765 22.742 79.9469 23.5408C81.3265 24.9147 83.0598 25.6177 85.0819 25.6177C86.3011 25.6177 87.3925 25.3939 88.3872 24.9147C90.4734 23.9241 91.6932 21.9432 92.0781 19.7065C92.0781 19.6426 92.0781 19.6106 92.0141 19.6106H88.4192C88.3891 19.6106 88.3659 19.6178 88.3503 19.6321C88.3321 19.648 88.3233 19.6728 88.3233 19.7065C88.1948 20.2177 88.0024 20.6651 87.7454 21.0484C87.1355 21.9112 86.2052 22.2945 85.1459 22.3265C83.5412 22.3265 82.2894 21.368 82.0004 19.7384C81.9365 19.355 81.8725 18.8758 81.8725 18.2687C81.8399 17.6615 81.8399 16.8947 81.8399 16.0001Z" fill="white"/>
<path fill-rule="evenodd" clip-rule="evenodd" d="M109.409 16.0001C109.409 15.1693 109.409 14.4025 109.376 13.6995C109.344 12.9966 109.28 12.3256 109.184 11.7185C109.088 11.1113 108.895 10.5363 108.638 9.993C108.381 9.44991 107.997 8.93865 107.515 8.45937C106.841 7.78835 106.103 7.27708 105.269 6.92573C104.434 6.57423 103.471 6.38249 102.38 6.38249C102.261 6.38249 102.144 6.38483 102.028 6.38935C101.811 6.39778 101.599 6.41416 101.393 6.43803C101.123 6.46908 100.863 6.51307 100.612 6.56939C100.216 6.65817 99.8427 6.77783 99.4917 6.92573C98.6574 7.27708 97.887 7.78835 97.2131 8.45937C96.7317 8.93865 96.3782 9.44991 96.1218 9.993C95.8648 10.5363 95.6723 11.1113 95.5758 11.7185C95.4799 12.3256 95.4154 12.9966 95.3834 13.6995C95.3514 14.4025 95.3514 15.1693 95.3514 16.0001C95.3514 16.8309 95.3514 17.5657 95.3834 18.3005C95.4154 19.0035 95.4799 19.6746 95.5758 20.2816C95.6723 20.8887 95.8648 21.4639 96.1218 22.007C96.3782 22.5502 96.7637 23.0615 97.2131 23.5408C97.887 24.2117 98.6248 24.7229 99.4917 25.0744C100.326 25.4259 101.289 25.6177 102.38 25.6177C103.471 25.6177 104.402 25.4259 105.269 25.0744C106.103 24.7229 106.873 24.2117 107.515 23.5408C107.748 23.3091 107.95 23.0699 108.13 22.8233C108.323 22.5598 108.489 22.2877 108.638 22.007C108.895 21.4639 109.088 20.8887 109.184 20.2816C109.28 19.6746 109.376 19.0035 109.376 18.3005C109.409 17.5657 109.409 16.8309 109.409 16.0001ZM105.718 16.0001C105.718 16.8947 105.718 17.6615 105.685 18.2687C105.653 18.8758 105.622 19.355 105.525 19.7384C105.48 20.0089 105.418 20.2476 105.341 20.4433C105.309 20.525 105.274 20.5993 105.237 20.6651C105.178 20.7827 105.119 20.8935 105.054 20.9976L105 21.0792L104.957 21.1391C104.906 21.208 104.85 21.2737 104.787 21.336C104.53 21.6555 104.177 21.8792 103.792 22.071C103.375 22.2627 102.925 22.3265 102.412 22.3585C102.222 22.3585 102.04 22.3452 101.865 22.3189C101.57 22.2741 101.294 22.1914 101.032 22.071C100.615 21.8792 100.294 21.6555 100.005 21.336C99.9129 21.2444 99.8358 21.1455 99.7662 21.0392L99.7242 20.9725L99.6509 20.8475L99.6108 20.7721L99.5556 20.6651C99.4271 20.4094 99.3312 20.1219 99.2666 19.7384C99.2466 19.6195 99.2265 19.4912 99.2083 19.3529L99.1902 19.2032L99.1732 19.0316C99.1526 18.8026 99.1388 18.5492 99.1388 18.2687C99.1062 17.6615 99.1062 16.9267 99.1062 16.0001C99.1062 15.1053 99.1062 14.3385 99.1388 13.7315C99.1707 13.1244 99.2027 12.6451 99.2666 12.2616C99.2811 12.175 99.2974 12.0917 99.3149 12.0118L99.3337 11.9327L99.3713 11.7903C99.3933 11.7154 99.4165 11.6449 99.4415 11.5791C99.476 11.4886 99.5142 11.4068 99.5556 11.3351C99.6127 11.2213 99.6697 11.114 99.733 11.0129C99.8114 10.8867 99.8985 10.7704 100.005 10.664C100.262 10.3445 100.615 10.1209 101.032 9.92919C101.449 9.73745 101.899 9.67348 102.412 9.64166C102.925 9.64166 103.375 9.73745 103.792 9.92919C104.017 10.0412 104.231 10.1643 104.422 10.311C104.557 10.4152 104.681 10.5313 104.787 10.664C104.98 10.8558 105.108 11.0795 105.237 11.3351C105.365 11.5906 105.461 11.8783 105.525 12.2616C105.59 12.6451 105.653 13.1244 105.685 13.7315C105.685 13.8862 105.688 14.0514 105.691 14.2265L105.699 14.6158L105.702 14.7963C105.711 15.1652 105.718 15.5678 105.718 16.0001Z" fill="white"/>
<path d="M139 6.86177C139 6.67002 138.84 6.54225 138.679 6.54225H135.63C135.437 6.54225 135.309 6.70201 135.309 6.86177V18.1408L127.831 6.63804C127.767 6.57423 127.734 6.54225 127.639 6.54225H124.782C124.622 6.54225 124.461 6.70201 124.461 6.86177V25.1384C124.461 25.33 124.622 25.4579 124.782 25.4579H127.831C128.023 25.4579 128.152 25.2981 128.152 25.1384V13.8272L135.63 25.362L135.676 25.4066C135.696 25.4236 135.715 25.4364 135.737 25.445C135.747 25.4487 135.757 25.4515 135.769 25.4537C135.784 25.4565 135.803 25.4579 135.823 25.4579H138.679C138.871 25.4579 139 25.2981 139 25.1384V6.86177Z" fill="white"/>
<path d="M118.418 6.70482C118.427 6.72073 118.435 6.73758 118.441 6.75537L118.447 6.77237C118.455 6.8003 118.459 6.8301 118.459 6.86177V25.1384C118.459 25.2981 118.331 25.4579 118.138 25.4579H115.089C114.929 25.4579 114.768 25.33 114.768 25.1384V6.86177C114.768 6.70201 114.897 6.54225 115.089 6.54225H118.138C118.249 6.54225 118.36 6.60356 118.418 6.70482Z" fill="white"/>
<path d="M43.4555 6.54225C43.616 6.54225 43.7765 6.67002 43.7765 6.86177V14.5303L50.4523 6.57423C50.4843 6.51026 50.5162 6.51026 50.5802 6.51026H54.6565C54.8489 6.51026 54.9129 6.63804 54.785 6.7978L48.7191 14.051L55.3303 25.2022C55.3943 25.362 55.3623 25.4578 55.2018 25.4578H51.479C51.3825 25.4578 51.3186 25.4259 51.2866 25.362L46.2475 16.8307L43.7765 19.7704V25.1382C43.7765 25.298 43.648 25.4578 43.4555 25.4578H40.4066C40.3358 25.4578 40.2649 25.4329 40.2079 25.3886C40.1358 25.3326 40.0856 25.2454 40.0856 25.1382V6.86177C40.0856 6.70201 40.2141 6.54225 40.4066 6.54225H43.4555Z" fill="white"/>
<path d="M66.0819 22.3265C64.3493 22.3265 62.8085 20.7289 62.8085 18.8438V6.86177C62.8085 6.76785 62.7703 6.68937 62.712 6.63367C62.6518 6.57548 62.5697 6.54225 62.4876 6.54225H59.4386C59.2462 6.54225 59.1177 6.70201 59.1177 6.86177V18.8118C59.1177 22.9975 62.2632 25.6495 66.1144 25.6495C69.9657 25.6495 73.1106 22.9975 73.1106 18.8118V6.86177C73.1106 6.67002 72.9501 6.54225 72.7896 6.54225H69.7407C69.5483 6.54225 69.4198 6.70201 69.4198 6.86177V18.8438C69.3558 20.7289 67.7831 22.3265 66.0819 22.3265Z" fill="white"/>
</svg>
