<svg width="46" height="46" viewBox="0 0 46 46" fill="none" xmlns="http://www.w3.org/2000/svg">
<path d="M23 46C35.7025 46 46 35.7025 46 23C46 10.2975 35.7025 0 23 0C10.2975 0 0 10.2975 0 23C0 35.7025 10.2975 46 23 46Z" fill="#FF2147"/>
<path d="M27.3583 31.4516C24.3387 33.253 24.9065 31.0743 24.8562 34.8836C24.8562 35.4083 24.6882 35.5772 24.1653 35.5772C23.298 35.5772 22.4295 35.5772 21.5598 35.5772C21.1016 35.5772 20.9309 35.4047 20.9309 34.9483C20.9309 34.2179 20.9309 33.4857 20.9309 32.7849C20.1223 32.6304 19.32 32.5306 18.5545 32.3177C17.7891 32.1048 17.0272 31.7885 16.2824 31.4875C15.9086 31.3366 15.8404 31.1363 15.941 30.7418C16.2159 29.6697 16.492 28.5976 16.7693 27.5254C16.8897 27.0618 17.1629 26.9208 17.586 27.1373C19.3272 28.0142 21.3469 28.6134 23.2983 28.2073C24.3198 28.0025 25.0502 27.0636 24.2219 26.1643C23.7053 25.6252 23.0207 25.3791 22.3495 25.1077C21.3523 24.7043 20.3316 24.345 19.3613 23.8805C15.782 22.3765 14.9221 17.5914 17.8151 14.9716C18.6534 14.2235 19.6625 13.6929 20.7539 13.4263C21.0001 13.3625 21.0908 13.2627 21.0809 12.9986C21.0576 12.3625 21.0711 11.7264 21.0746 11.0903C21.0746 10.6016 21.2543 10.4246 21.735 10.4237C22.5921 10.4237 23.4501 10.4237 24.309 10.4237C24.8121 10.4237 24.9748 10.5953 24.9739 11.1092C24.9739 11.668 24.9802 12.2268 24.9685 12.7848C24.964 12.9905 25.0161 13.0705 25.238 13.0848C26.4901 13.1693 27.7171 13.4763 28.8614 13.9914C29.2621 14.1711 29.3546 14.3436 29.2441 14.764C28.9782 15.7781 28.7087 16.7921 28.4355 17.8061C28.2945 18.3335 28.0348 18.4584 27.5371 18.214C25.9397 17.4602 24.0602 17.0119 22.3352 17.542C21.4448 17.869 21.3262 18.7567 22.1213 19.2607C22.7918 19.6701 23.4971 20.0195 24.2291 20.3047C25.3162 20.7539 26.4141 21.1519 27.4338 21.7557C31.1012 23.9308 30.8982 29.3151 27.3583 31.4516Z" fill="white"/>
</svg>
