<svg width="46" height="46" viewBox="0 0 46 46" fill="none" xmlns="http://www.w3.org/2000/svg">
<path d="M45.3116 28.564C42.2393 40.8854 29.7583 48.384 17.4341 45.3114C5.11482 42.2396 -2.38472 29.7593 0.688953 17.4386C3.75977 5.11575 16.2408 -2.38363 28.5615 0.688255C40.885 3.76019 48.3838 16.2419 45.3116 28.564Z" fill="#F7931A"/>
<path d="M15.4338 26.8736C15.3087 27.1842 14.9918 27.6499 14.2772 27.4731C14.3024 27.5097 12.4428 27.0152 12.4428 27.0152L11.1899 29.9038L14.4742 30.7226C15.0852 30.8756 15.684 31.0359 16.2734 31.1869L15.2289 35.38L17.7499 36.0089L18.7843 31.8603C19.4729 32.0471 20.1414 32.2196 20.7955 32.3821L19.7647 36.5113L22.2886 37.1402L23.333 32.9549C27.6367 33.7692 30.8727 33.4408 32.2349 29.5488C33.3326 26.4151 32.1803 24.6074 29.916 23.4287C31.565 23.0485 32.8071 21.9639 33.1385 19.7236C33.5964 16.6632 31.2659 15.018 28.0794 13.9204L29.113 9.77467L26.5892 9.14577L25.5829 13.1822C24.9194 13.0169 24.2379 12.8609 23.5608 12.7064L24.5743 8.6433L22.052 8.0144L21.0176 12.1587C20.4684 12.0336 19.9293 11.9099 19.406 11.7799L19.4088 11.7669L15.9283 10.898L15.2568 13.5933C15.2568 13.5933 17.1294 14.0224 17.0899 14.0489C18.1121 14.3041 18.2968 14.9804 18.2659 15.5166L15.4338 26.8736ZM27.3721 27.8087C26.5922 30.9424 21.3152 29.2483 19.6044 28.8236L20.9904 23.2684C22.7011 23.6953 28.1872 24.5406 27.3721 27.8087ZM28.1527 19.6783C27.4411 22.5289 23.049 21.0806 21.6243 20.7255L22.8808 15.6871C24.3055 16.0422 28.8938 16.7048 28.1527 19.6783Z" fill="white"/>
</svg>
