<svg width="46" height="46" viewBox="0 0 46 46" fill="none" xmlns="http://www.w3.org/2000/svg">
<path d="M23 46C35.7025 46 46 35.7025 46 23C46 10.2975 35.7025 0 23 0C10.2975 0 0 10.2975 0 23C0 35.7025 10.2975 46 23 46Z" fill="url(#paint0_linear_1636_7996)"/>
<path d="M22.9977 29.2652L15.2697 24.6997L22.9977 35.5925L30.7326 24.6997L22.9977 29.2652Z" fill="white"/>
<path d="M30.728 23.2346L22.9977 27.8024L15.2674 23.2346L22.9977 10.4075L30.728 23.2346Z" fill="white"/>
<path d="M30.728 23.2346L22.9977 19.7202L22.9977 10.4075L30.728 23.2346Z" fill="#C1CCF7"/>
<path d="M30.7326 24.6997L22.9977 35.5925V29.2652L30.7326 24.6997Z" fill="#C1CCF7"/>
<path d="M22.9977 19.7202L22.9977 27.8024L15.2697 23.2346L22.9977 19.7202Z" fill="#C1CCF7"/>
<path d="M30.728 23.2346L22.9977 27.8024L22.9977 19.7202L30.728 23.2346Z" fill="#8198EE"/>
<defs>
<linearGradient id="paint0_linear_1636_7996" x1="23" y1="46" x2="23" y2="0" gradientUnits="userSpaceOnUse">
<stop stop-color="#3E5EBD"/>
<stop offset="1" stop-color="#94AEFF"/>
</linearGradient>
</defs>
</svg>
