<svg width="1920" height="1084" viewBox="0 0 1920 1084" fill="none" xmlns="http://www.w3.org/2000/svg">
<path d="M1800.56 31.1516C1860.6 31.1516 1860.03 0.00012207 1920 0.00012207V1083.5C1860.04 1083.5 1860.44 1052.35 1800.48 1052.35C1740.52 1052.35 1740.44 1083.5 1680.48 1083.5C1620.51 1083.5 1620.44 1052.35 1560.48 1052.35C1500.52 1052.35 1500.43 1083.5 1440.47 1083.5C1380.51 1083.5 1380.43 1052.35 1320.46 1052.35C1260.51 1052.35 1260.51 1083.5 1200.47 1083.5C1140.42 1083.5 1140.51 1052.35 1080.46 1052.35C1020.42 1052.35 1020.5 1083.5 960.457 1083.5C900.419 1083.5 900.497 1052.35 840.46 1052.35C780.413 1052.35 780.495 1083.5 720.453 1083.5C660.41 1083.5 660.492 1052.35 600.45 1052.35C540.407 1052.35 540.488 1083.5 480.447 1083.5C420.404 1083.5 420.486 1052.35 360.443 1052.35C300.401 1052.35 300.401 1083.5 240.44 1083.5C180.48 1083.5 180.48 1052.35 120.437 1052.35C60.3948 1052.35 59.9609 1083.5 0 1083.5V0C59.9603 0 60.5579 31.1516 120.518 31.1516C180.48 31.1516 180.561 0 240.522 0C300.483 0 300.565 31.1516 360.525 31.1516C420.486 31.1516 420.567 0 480.528 0C540.488 0 540.57 31.1516 600.531 31.1516C660.492 31.1516 660.492 0 720.535 0C780.577 0 780.495 31.1516 840.538 31.1516C900.583 31.1516 900.497 0 960.543 0C1020.58 0 1020.5 31.1516 1080.54 31.1516C1140.59 31.1516 1140.51 0 1200.55 0C1260.59 0 1260.51 31.1516 1320.55 31.1516C1380.59 31.1516 1380.51 0 1440.56 0C1500.59 0 1500.52 31.1516 1560.55 31.1516C1620.6 31.1516 1620.51 0 1680.56 0C1740.6 0 1740.52 31.1516 1800.56 31.1516Z" fill="url(#paint0_linear_601_377)"/>
<defs>
<linearGradient id="paint0_linear_601_377" x1="960" y1="994" x2="960" y2="-75.9999" gradientUnits="userSpaceOnUse">
<stop stop-color="#040612"/>
<stop offset="1" stop-color="#D20906"/>
</linearGradient>
</defs>
</svg>
