<svg viewBox="0 0 1920 923" fill="none" xmlns="http://www.w3.org/2000/svg">
<path d="M1800.56 891.349C1860.6 891.349 1860.03 922.5 1920 922.5V0H0V922.5C59.9603 922.5 60.5579 891.349 120.518 891.349C180.48 891.349 180.561 922.5 240.522 922.5C300.483 922.5 300.565 891.349 360.525 891.349C420.486 891.349 420.567 922.5 480.528 922.5C540.488 922.5 540.57 891.349 600.531 891.349C660.492 891.349 660.492 922.5 720.535 922.5C780.577 922.5 780.495 891.349 840.538 891.349C900.583 891.349 900.497 922.5 960.543 922.5C1020.58 922.5 1020.5 891.349 1080.54 891.349C1140.59 891.349 1140.51 922.5 1200.55 922.5C1260.59 922.5 1260.51 891.349 1320.55 891.349C1380.59 891.349 1380.51 922.5 1440.56 922.5C1500.59 922.5 1500.52 891.349 1560.55 891.349C1620.6 891.349 1620.51 922.5 1680.56 922.5C1740.6 922.5 1740.52 891.349 1800.56 891.349Z" fill="url(#paint0_linear_1636_8004)"/>
<defs>
<linearGradient id="paint0_linear_1636_8004" x1="960" y1="-361" x2="960" y2="922.5" gradientUnits="userSpaceOnUse">
<stop stop-color="#040612"/>
<stop offset="1" stop-color="#0E9462"/>
</linearGradient>
</defs>
</svg>
