<svg viewBox="0 0 1920 994" fill="none" xmlns="http://www.w3.org/2000/svg">
<path d="M1800.56 31.1516C1860.6 31.1516 1860.03 0.00012207 1920 0.00012207V993.5C1860.04 993.5 1860.44 962.348 1800.48 962.348C1740.52 962.348 1740.44 993.5 1680.48 993.5C1620.51 993.5 1620.44 962.348 1560.48 962.348C1500.52 962.348 1500.43 993.5 1440.47 993.5C1380.51 993.5 1380.43 962.348 1320.46 962.348C1260.51 962.348 1260.51 993.5 1200.47 993.5C1140.42 993.5 1140.51 962.348 1080.46 962.348C1020.42 962.348 1020.5 993.5 960.457 993.5C900.419 993.5 900.497 962.348 840.46 962.348C780.413 962.348 780.495 993.5 720.453 993.5C660.41 993.5 660.492 962.348 600.45 962.348C540.407 962.348 540.488 993.5 480.447 993.5C420.404 993.5 420.486 962.348 360.443 962.348C300.401 962.348 300.401 993.5 240.44 993.5C180.48 993.5 180.48 962.348 120.437 962.348C60.3948 962.348 59.9609 993.5 0 993.5V0C59.9603 0 60.5579 31.1516 120.518 31.1516C180.48 31.1516 180.561 0 240.522 0C300.483 0 300.565 31.1516 360.525 31.1516C420.486 31.1516 420.567 0 480.528 0C540.488 0 540.57 31.1516 600.531 31.1516C660.492 31.1516 660.492 0 720.535 0C780.577 0 780.495 31.1516 840.538 31.1516C900.583 31.1516 900.497 0 960.543 0C1020.58 0 1020.5 31.1516 1080.54 31.1516C1140.59 31.1516 1140.51 0 1200.55 0C1260.59 0 1260.51 31.1516 1320.55 31.1516C1380.59 31.1516 1380.51 0 1440.56 0C1500.59 0 1500.52 31.1516 1560.55 31.1516C1620.6 31.1516 1620.51 0 1680.56 0C1740.6 0 1740.52 31.1516 1800.56 31.1516Z" fill="url(#paint0_linear_1636_4722)"/>
<defs>
<linearGradient id="paint0_linear_1636_4722" x1="960" y1="994" x2="960" y2="-0.000637658" gradientUnits="userSpaceOnUse">
<stop stop-color="#040612"/>
<stop offset="1" stop-color="#0E9462"/>
</linearGradient>
</defs>
</svg>
