<svg viewBox="0 0 1920 1168" fill="none" xmlns="http://www.w3.org/2000/svg">
<path d="M1800.56 1136.35C1860.6 1136.35 1860.03 1167.5 1920 1167.5V0C1860.04 0 1860.44 31.1521 1800.48 31.1521C1740.52 31.1521 1740.44 0.000167847 1680.48 0.000167847C1620.51 0.000167847 1620.44 31.1521 1560.48 31.1521C1500.52 31.1521 1500.43 0.000167847 1440.47 0.000167847C1380.51 0.000167847 1380.43 31.1521 1320.46 31.1521C1260.51 31.1521 1260.51 0.000167847 1200.47 0.000167847C1140.42 0.000167847 1140.51 31.1521 1080.46 31.1521C1020.42 31.1521 1020.5 0.000167847 960.457 0.000167847C900.419 0.000167847 900.497 31.1521 840.46 31.1521C780.413 31.1521 780.495 0.000167847 720.453 0.000167847C660.41 0.000167847 660.492 31.1521 600.45 31.1521C540.407 31.1521 540.488 0.000167847 480.447 0.000167847C420.404 0.000167847 420.486 31.1521 360.443 31.1521C300.401 31.1521 300.401 0.000167847 240.44 0.000167847C180.48 0.000167847 180.48 31.1521 120.437 31.1521C60.3948 31.1521 59.9609 0 0 0V1167.5C59.9603 1167.5 60.5579 1136.35 120.518 1136.35C180.48 1136.35 180.561 1167.5 240.522 1167.5C300.483 1167.5 300.565 1136.35 360.525 1136.35C420.486 1136.35 420.567 1167.5 480.528 1167.5C540.488 1167.5 540.57 1136.35 600.531 1136.35C660.492 1136.35 660.492 1167.5 720.535 1167.5C780.577 1167.5 780.495 1136.35 840.538 1136.35C900.583 1136.35 900.497 1167.5 960.543 1167.5C1020.58 1167.5 1020.5 1136.35 1080.54 1136.35C1140.59 1136.35 1140.51 1167.5 1200.55 1167.5C1260.59 1167.5 1260.51 1136.35 1320.55 1136.35C1380.59 1136.35 1380.51 1167.5 1440.56 1167.5C1500.59 1167.5 1500.52 1136.35 1560.55 1136.35C1620.6 1136.35 1620.51 1167.5 1680.56 1167.5C1740.6 1167.5 1740.52 1136.35 1800.56 1136.35Z" fill="url(#paint0_linear_1636_7573)"/>
<defs>
<linearGradient id="paint0_linear_1636_7573" x1="960" y1="-35" x2="960" y2="1557" gradientUnits="userSpaceOnUse">
<stop stop-color="#0E9462" stop-opacity="0.21"/>
<stop offset="1" stop-color="#0E9462"/>
</linearGradient>
</defs>
</svg>
