<svg width="250" height="170" viewBox="0 0 250 170" fill="none" xmlns="http://www.w3.org/2000/svg">
<path d="M0.791995 132.841L1.08145 136.531L20.1987 134.698L19.9043 131.001L0.791995 132.841Z" fill="#0E9462"/>
<path d="M32.5155 154.214L19.6236 166.44L22.1679 169.104L35.0647 156.884L32.5155 154.214Z" fill="#0E9462"/>
<path d="M24.5975 143.897L5.10303 150.814L6.29292 154.311L25.7989 147.395L24.5975 143.897Z" fill="#0E9462"/>
<path d="M227.908 0.526729L231.011 2.54542L220.261 18.4598L217.154 16.4337L227.908 0.526729Z" fill="#0E9462"/>
<path d="M231.513 38.6085L248.414 33.1305L249.538 36.6388L232.639 42.1243L231.513 38.6085Z" fill="#0E9462"/>
<path d="M226.237 26.7216L241.632 12.9064L244.135 15.6231L228.735 29.4492L226.237 26.7216Z" fill="#0E9462"/>
</svg>