<svg width="1961" height="608" viewBox="0 0 1961 608" fill="none" xmlns="http://www.w3.org/2000/svg">
<path fill-rule="evenodd" clip-rule="evenodd" d="M1722.65 0.0335691L38.6508 0L0 12.1245V13.7583L8.52262 11.0838H95.6433L70.8628 19.7729H0V21.3284H66.427L39.3646 30.8176H0V32.373H34.9288L5.32907 42.752H0V44.3074H0.893206L0 44.6206V46.2712L5.59989 44.3074H104.355L75.6896 55.6989H0V57.2544H71.7755L40.2521 69.7818H0V71.3372H36.3382L1.5626 85.157H0V85.778V86.7125V87.4565L1.87225 86.7125H115.341L81.9459 102.026H0V103.582H78.5539L41.4366 120.602H0V122.157H38.0446L0 139.603V141.164V141.315V142.719H129.674L90.3175 164.048H0V165.603H87.4474L43.0423 189.667H0V191.223H40.1721L0 212.993V214.767L43.4433 191.223H192.905L151.641 218.555H0V220.11H149.293L102.108 251.364H0V252.92H99.7597L45.3437 288.963H0V290.519H42.9954L0 318.998V320.866L45.8161 290.519H229.021L179.753 332.476H0V334.032H177.927L119.928 383.425H0V384.98H118.101L48.9394 443.88H0V445.435H47.113L0 485.557V487.605L49.5172 445.435H284.984L225.085 516.795H0V518.35H223.779L149.832 606.445H7.06536e-05V608H1960.56V606.445H1903.05L1799.61 518.35H1960.56V516.795H1797.79L1714 445.435H1949.25L1960.56 452.927V451.058L1952.08 445.435H1960.56V443.88H1949.73L1860.81 384.98H1960.56V383.425H1858.46L1783.89 334.032H1960.56V332.476H1781.54L1718.19 290.519H1900.96L1960.56 322.819V321.045L1904.24 290.519H1960.56V288.963H1901.37L1834.86 252.92H1960.56V251.364H1831.99L1774.32 220.11H1933.01L1960.56 232.744V231.032L1936.75 220.11H1960.56V218.555H1933.35L1873.75 191.223H1960.56V189.667H1870.36L1817.88 165.603H1957.82L1960.56 166.694V165.603V165.015V164.048H1958.13L1904.46 142.719H1960.56V141.164H1900.55L1852.72 122.157H1960.56V120.602H1848.81L1805.98 103.582H1924.62L1960.56 116.187V114.537L1929.32 103.582H1960.56V102.026H1924.89L1881.22 86.7125H1960.56V85.157H1876.78L1837.37 71.3372H1944.71L1960.56 76.3112V74.6831L1722.65 0.0335691ZM10.0353 42.752H108.269L134.386 32.373H39.6323L10.0353 42.752ZM44.0677 30.8176H138.3L162.178 21.3284H71.1276L44.0677 30.8176ZM75.563 19.7729H166.092L187.957 11.0838H100.341L75.563 19.7729ZM104.777 9.52838H191.871L211.934 1.55545H127.513L104.777 9.52838ZM122.817 1.55545H38.8858L13.4791 9.52838H100.079L122.817 1.55545ZM170.304 19.7729L192.167 11.0838H280.27L261.321 19.7729H170.304ZM142.513 30.8176L166.39 21.3284H257.929L237.235 30.8176H142.513ZM112.484 42.752L138.6 32.373H233.843L211.209 42.752H112.484ZM79.9078 55.6989L108.571 44.3074H207.817L182.975 55.6989H79.9078ZM44.4728 69.7818L75.994 57.2544H179.583L152.263 69.7818H44.4728ZM5.78594 85.157L40.5591 71.3372H148.871L118.733 85.157H5.78594ZM216.142 1.55545L196.081 9.52838H283.662L301.049 1.55545H216.142ZM0.329687 141.164H132.544L167.616 122.157H41.7769L0.329687 141.164ZM45.1688 120.602H170.486L201.893 103.582H82.2849L45.1688 120.602ZM85.6768 102.026H204.763L233.021 86.7125H119.071L85.6768 102.026ZM122.463 85.157H235.891L261.392 71.3372H152.6L122.463 85.157ZM155.992 69.7818H264.262L287.379 57.2544H183.31L155.992 69.7818ZM186.702 55.6989H290.249L311.269 44.3074H211.544L186.702 55.6989ZM214.936 42.752H314.139L333.291 32.373H237.569L214.936 42.752ZM240.961 30.8176H336.162L353.672 21.3284H261.654L240.961 30.8176ZM265.046 19.7729H356.542L372.576 11.0838H283.995L265.046 19.7729ZM287.386 9.52838H375.446L390.158 1.55545H304.773L287.386 9.52838ZM359.801 19.7729L375.834 11.0838H464.867L451.748 19.7729H359.801ZM339.421 30.8176L356.931 21.3284H449.4L435.074 30.8176H339.421ZM317.4 42.752L336.551 32.373H432.726L417.056 42.752H317.4ZM293.511 55.6989L314.53 44.3074H414.708L397.51 55.6989H293.511ZM267.525 69.7818L290.641 57.2544H395.161L376.248 69.7818H267.525ZM239.155 85.157L264.655 71.3372H373.9L353.036 85.157H239.155ZM208.028 102.026L236.285 86.7125H350.688L327.568 102.026H208.028ZM173.753 120.602L205.158 103.582H325.22L299.524 120.602H173.753ZM135.812 141.164L170.882 122.157H297.176L268.481 141.164H135.812ZM93.5868 164.048L132.942 142.719H266.133L233.933 164.048H93.5868ZM46.3134 189.667L90.7167 165.603H231.584L195.254 189.667H46.3134ZM393.416 1.55545L378.704 9.52838H467.215L479.252 1.55545H393.416ZM48.1644 288.963H230.848L273.172 252.92H102.58L48.1644 288.963ZM104.928 251.364H274.998L311.698 220.11H152.113L104.928 251.364ZM154.461 218.555H313.524L345.618 191.223H195.724L154.461 218.555ZM198.073 189.667H347.445L375.702 165.603H234.403L198.073 189.667ZM236.751 164.048H377.528L402.573 142.719H268.951L236.751 164.048ZM271.299 141.164H404.4L426.718 122.157H299.994L271.299 141.164ZM302.342 120.602H428.544L448.53 103.582H328.038L302.342 120.602ZM330.386 102.026H450.356L468.338 86.7125H353.505L330.386 102.026ZM355.853 85.157H470.165L486.392 71.3372H376.717L355.853 85.157ZM379.065 69.7818H488.219L502.929 57.2544H397.978L379.065 69.7818ZM400.327 55.6989H504.755L518.132 44.3074H417.524L400.327 55.6989ZM419.873 42.752H519.958L532.146 32.373H435.542L419.873 42.752ZM437.89 30.8176H533.972L545.115 21.3284H452.216L437.89 30.8176ZM454.564 19.7729H546.941L557.144 11.0838H467.682L454.564 19.7729ZM470.031 9.52838H558.971L568.333 1.55545H482.068L470.031 9.52838ZM549.341 19.7729L559.544 11.0838H649.581L642.287 19.7729H549.341ZM536.372 30.8176L547.515 21.3284H640.981L633.016 30.8176H536.372ZM522.358 42.752L534.546 32.373H631.71L622.998 42.752H522.358ZM507.156 55.6989L520.532 44.3074H621.693L612.131 55.6989H507.156ZM490.619 69.7818L505.329 57.2544H610.825L600.309 69.7818H490.619ZM472.565 85.157L488.793 71.3372H599.004L587.403 85.157H472.565ZM452.757 102.026L470.739 86.7125H586.098L573.243 102.026H452.757ZM430.945 120.602L450.931 103.582H571.938L557.651 120.602H430.945ZM406.801 141.164L429.119 122.157H556.345L540.391 141.164H406.801ZM379.93 164.048L404.974 142.719H539.085L521.182 164.048H379.93ZM349.846 189.667L378.103 165.603H519.877L499.677 189.667H349.846ZM315.926 218.555L348.02 191.223H498.371L475.429 218.555H315.926ZM277.4 251.364L314.1 220.11H474.123L447.888 251.364H277.4ZM233.251 288.963L275.574 252.92H446.583L416.327 288.963H233.251ZM182.157 332.476L231.424 290.519H415.022L379.802 332.476H182.157ZM122.331 383.425L180.33 334.032H378.497L337.036 383.425H122.331ZM51.3437 443.88L120.505 384.98H335.73L286.29 443.88H51.3437ZM570.733 1.55545L561.371 9.52838H650.886L657.579 1.55545H570.733ZM151.863 606.445H442.021L486.35 518.35H225.81L151.863 606.445ZM227.115 516.795H487.132L523.04 445.435H287.015L227.115 516.795ZM288.321 443.88H523.823L553.46 384.98H337.761L288.321 443.88ZM339.067 383.425H554.243L579.097 334.032H380.528L339.067 383.425ZM381.833 332.476H579.88L600.992 290.519H417.053L381.833 332.476ZM418.358 288.963H601.775L619.912 252.92H448.613L418.358 288.963ZM449.919 251.364H620.694L636.421 220.11H476.154L449.919 251.364ZM477.459 218.555H637.204L650.957 191.223H500.402L477.459 218.555ZM501.708 189.667H651.74L663.849 165.603H521.907L501.708 189.667ZM523.213 164.048H664.631L675.364 142.719H541.116L523.213 164.048ZM542.422 141.164H676.146L685.71 122.157H558.376L542.422 141.164ZM559.682 120.602H686.493L695.057 103.582H573.968L559.682 120.602ZM575.274 102.026H695.84L703.546 86.7125H588.128L575.274 102.026ZM589.434 85.157H704.328L711.282 71.3372H601.034L589.434 85.157ZM602.34 69.7818H712.065L718.369 57.2544H612.856L602.34 69.7818ZM614.161 55.6989H719.151L724.883 44.3074H623.723L614.161 55.6989ZM625.029 42.752H725.666L730.889 32.373H633.741L625.029 42.752ZM635.047 30.8176H731.671L736.446 21.3284H643.012L635.047 30.8176ZM644.318 19.7729H737.229L741.601 11.0838H651.611L644.318 19.7729ZM652.917 9.52838H742.384L746.396 1.55545H659.61L652.917 9.52838ZM738.97 19.7729L743.343 11.0838H833.949L832.486 19.7729H738.97ZM733.413 30.8176L738.188 21.3284H832.224L830.627 30.8176H733.413ZM727.407 42.752L732.63 32.373H830.365L828.618 42.752H727.407ZM720.893 55.6989L726.625 44.3074H828.356L826.438 55.6989H720.893ZM713.806 69.7818L720.11 57.2544H826.176L824.067 69.7818H713.806ZM706.07 85.157L713.024 71.3372H823.806L821.479 85.157H706.07ZM697.581 102.026L705.287 86.7125H821.217L818.639 102.026H697.581ZM688.234 120.602L696.799 103.582H818.378L815.512 120.602H688.234ZM677.888 141.164L687.451 122.157H815.25L812.051 141.164H677.888ZM666.373 164.048L677.105 142.719H811.789L808.199 164.048H666.373ZM653.481 189.667L665.59 165.603H807.937L803.886 189.667H653.481ZM638.945 218.555L652.698 191.223H803.624L799.023 218.555H638.945ZM622.436 251.364L638.162 220.11H798.761L793.5 251.364H622.436ZM603.516 288.963L621.653 252.92H793.238L787.17 288.963H603.516ZM581.621 332.476L602.734 290.519H786.909L779.845 332.476H581.621ZM555.984 383.425L580.838 334.032H779.584L771.269 383.425H555.984ZM525.564 443.88L555.201 384.98H771.007L761.092 443.88H525.564ZM488.874 516.795L524.781 445.435H760.83L748.817 516.795H488.874ZM443.763 606.445L488.091 518.35H748.555L733.726 606.445H443.763ZM748.137 1.55545L744.125 9.52838H834.21L835.553 1.55545H748.137ZM735.303 606.445H1025.65L1010.88 518.35H750.133L735.303 606.445ZM750.394 516.795H1010.62L998.649 445.435H762.407L750.394 516.795ZM762.669 443.88H998.388L988.51 384.98H772.584L762.669 443.88ZM772.846 383.425H988.249L979.965 334.032H781.161L772.846 383.425ZM781.423 332.476H979.704L972.667 290.519H788.486L781.423 332.476ZM788.748 288.963H972.406L966.361 252.92H794.815L788.748 288.963ZM795.077 251.364H966.1L960.859 220.11H800.338L795.077 251.364ZM800.6 218.555H960.598L956.014 191.223H805.201L800.6 218.555ZM805.463 189.667H955.753L951.717 165.603H809.514L805.463 189.667ZM809.776 164.048H951.456L947.879 142.719H813.366L809.776 164.048ZM813.628 141.164H947.618L944.431 122.157H816.828L813.628 141.164ZM817.09 120.602H944.17L941.315 103.582H819.955L817.09 120.602ZM820.217 102.026H941.054L938.486 86.7125H822.794L820.217 102.026ZM823.056 85.157H938.225L935.907 71.3372H825.383L823.056 85.157ZM825.645 69.7818H935.646L933.545 57.2544H827.753L825.645 69.7818ZM828.015 55.6989H933.285L931.374 44.3074H829.933L828.015 55.6989ZM830.195 42.752H931.113L929.372 32.373H831.942L830.195 42.752ZM832.204 30.8176H929.112L927.52 21.3284H833.801L832.204 30.8176ZM834.063 19.7729H927.259L925.802 11.0838H835.526L834.063 19.7729ZM835.788 9.52838H925.541L924.204 1.55545H837.13L835.788 9.52838ZM928.836 19.7729L927.379 11.0838H1017.84L1022.21 19.7729H928.836ZM930.689 30.8176L929.097 21.3284H1022.99L1027.77 30.8176H930.689ZM932.69 42.752L930.95 32.373H1028.55L1033.77 42.752H932.69ZM934.862 55.6989L932.951 44.3074H1034.55L1040.29 55.6989H934.862ZM937.224 69.7818L935.123 57.2544H1041.07L1047.37 69.7818H937.224ZM939.802 85.157L937.484 71.3372H1048.16L1055.11 85.157H939.802ZM942.631 102.026L940.063 86.7125H1055.89L1063.6 102.026H942.631ZM945.747 120.602L942.892 103.582H1064.38L1072.95 120.602H945.747ZM949.195 141.164L946.008 122.157H1073.73L1083.29 141.164H949.195ZM953.033 164.048L949.456 142.719H1084.07L1094.81 164.048H953.033ZM957.33 189.667L953.294 165.603H1095.59L1107.7 189.667H957.33ZM962.175 218.555L957.591 191.223H1108.48L1122.23 218.555H962.175ZM967.678 251.364L962.436 220.11H1123.02L1138.74 251.364H967.678ZM973.984 288.963L967.938 252.92H1139.53L1157.66 288.963H973.984ZM981.281 332.476L974.244 290.519H1158.45L1179.56 332.476H981.281ZM989.826 383.425L981.542 334.032H1180.34L1205.2 383.425H989.826ZM999.965 443.88L990.087 384.98H1205.98L1235.62 443.88H999.965ZM1012.19 516.795L1000.23 445.435H1236.4L1272.31 516.795H1012.19ZM1027.23 606.445L1012.46 518.35H1273.09L1317.42 606.445H1027.23ZM925.781 1.55545L927.118 9.52838H1017.05L1013.04 1.55545H925.781ZM1319.16 606.445H1609.06L1535.18 518.35H1274.83L1319.16 606.445ZM1274.05 516.795H1533.88L1474.03 445.435H1238.14L1274.05 516.795ZM1237.36 443.88H1472.72L1423.33 384.98H1207.72L1237.36 443.88ZM1206.94 383.425H1422.02L1380.6 334.032H1182.08L1206.94 383.425ZM1181.3 332.476H1379.29L1344.1 290.519H1160.19L1181.3 332.476ZM1159.4 288.963H1342.8L1312.57 252.92H1141.27L1159.4 288.963ZM1140.48 251.364H1311.26L1285.05 220.11H1124.76L1140.48 251.364ZM1123.98 218.555H1283.75L1260.82 191.223H1110.22L1123.98 218.555ZM1109.44 189.667H1259.52L1239.34 165.603H1097.33L1109.44 189.667ZM1096.55 164.048H1238.03L1220.15 142.719H1085.82L1096.55 164.048ZM1085.03 141.164H1218.84L1202.9 122.157H1075.47L1085.03 141.164ZM1074.69 120.602H1201.6L1187.32 103.582H1066.12L1074.69 120.602ZM1065.34 102.026H1186.02L1173.17 86.7125H1057.63L1065.34 102.026ZM1056.85 85.157H1171.87L1160.28 71.3372H1049.9L1056.85 85.157ZM1049.11 69.7818H1158.97L1148.47 57.2544H1042.81L1049.11 69.7818ZM1042.03 55.6989H1147.16L1137.61 44.3074H1036.3L1042.03 55.6989ZM1035.51 42.752H1136.3L1127.6 32.373H1030.29L1035.51 42.752ZM1029.51 30.8176H1126.3L1118.34 21.3284H1024.73L1029.51 30.8176ZM1023.95 19.7729H1117.03L1109.74 11.0838H1019.58L1023.95 19.7729ZM1018.8 9.52838H1108.44L1101.75 1.55545H1014.78L1018.8 9.52838ZM1119.06 19.7729L1111.78 11.0838H1201.62L1211.82 19.7729H1119.06ZM1128.33 30.8176L1120.37 21.3284H1213.65L1224.79 30.8176H1128.33ZM1138.33 42.752L1129.63 32.373H1226.62L1238.81 42.752H1138.33ZM1149.19 55.6989L1139.64 44.3074H1240.63L1254.01 55.6989H1149.19ZM1161 69.7818L1150.5 57.2544H1255.83L1270.54 69.7818H1161ZM1173.9 85.157L1162.31 71.3372H1272.37L1288.59 85.157H1173.9ZM1188.05 102.026L1175.2 86.7125H1290.42L1308.4 102.026H1188.05ZM1203.63 120.602L1189.35 103.582H1310.23L1330.21 120.602H1203.63ZM1220.87 141.164L1204.93 122.157H1332.04L1354.35 141.164H1220.87ZM1240.06 164.048L1222.18 142.719H1356.18L1381.22 164.048H1240.06ZM1261.55 189.667L1241.37 165.603H1383.05L1411.3 189.667H1261.55ZM1285.78 218.555L1262.85 191.223H1413.13L1445.22 218.555H1285.78ZM1313.29 251.364L1287.08 220.11H1447.05L1483.74 251.364H1313.29ZM1344.83 288.963L1314.6 252.92H1485.57L1527.89 288.963H1344.83ZM1381.32 332.476L1346.13 290.519H1529.71L1578.98 332.476H1381.32ZM1424.05 383.425L1382.63 334.032H1580.8L1638.8 383.425H1424.05ZM1474.75 443.88L1425.36 384.98H1640.62L1709.78 443.88H1474.75ZM1535.91 516.795L1476.06 445.435H1711.6L1795.39 516.795H1535.91ZM1611.09 606.445L1537.21 518.35H1797.21L1900.65 606.445H1611.09ZM1103.78 1.55545L1110.47 9.52838H1199.8L1190.44 1.55545H1103.78ZM1712.18 443.88H1946.91L1857.98 384.98H1643.02L1712.18 443.88ZM1641.2 383.425H1855.64L1781.06 334.032H1583.2L1641.2 383.425ZM1581.38 332.476H1778.72L1715.37 290.519H1532.11L1581.38 332.476ZM1530.29 288.963H1713.02L1658.61 252.92H1487.97L1530.29 288.963ZM1486.14 251.364H1656.26L1609.07 220.11H1449.44L1486.14 251.364ZM1447.62 218.555H1606.73L1565.46 191.223H1415.53L1447.62 218.555ZM1413.7 189.667H1563.11L1526.78 165.603H1385.45L1413.7 189.667ZM1383.62 164.048H1524.44L1492.24 142.719H1358.58L1383.62 164.048ZM1356.75 141.164H1489.89L1461.19 122.157H1334.44L1356.75 141.164ZM1332.61 120.602H1458.84L1433.15 103.582H1312.63L1332.61 120.602ZM1310.8 102.026H1430.8L1407.68 86.7125H1292.82L1310.8 102.026ZM1290.99 85.157H1405.33L1384.47 71.3372H1274.77L1290.99 85.157ZM1272.94 69.7818H1382.12L1363.21 57.2544H1258.23L1272.94 69.7818ZM1256.41 55.6989H1360.86L1343.66 44.3074H1243.03L1256.41 55.6989ZM1241.2 42.752H1341.31L1325.64 32.373H1229.02L1241.2 42.752ZM1227.19 30.8176H1323.29L1308.97 21.3284H1216.05L1227.19 30.8176ZM1214.22 19.7729H1306.62L1293.5 11.0838H1204.02L1214.22 19.7729ZM1202.2 9.52838H1291.15L1279.12 1.55545H1192.83L1202.2 9.52838ZM1309.44 19.7729L1296.32 11.0838H1385.35L1401.38 19.7729H1309.44ZM1326.12 30.8176L1311.79 21.3284H1404.25L1421.76 30.8176H1326.12ZM1344.13 42.752L1328.46 32.373H1424.63L1443.78 42.752H1344.13ZM1363.68 55.6989L1346.48 44.3074H1446.65L1467.67 55.6989H1363.68ZM1384.94 69.7818L1366.03 57.2544H1470.54L1493.66 69.7818H1384.94ZM1408.15 85.157L1387.29 71.3372H1496.53L1522.03 85.157H1408.15ZM1433.62 102.026L1410.5 86.7125H1524.9L1553.16 102.026H1433.62ZM1461.67 120.602L1435.97 103.582H1556.03L1587.43 120.602H1461.67ZM1492.71 141.164L1464.01 122.157H1590.3L1625.37 141.164H1492.71ZM1527.26 164.048L1495.06 142.719H1628.24L1667.6 164.048H1527.26ZM1565.94 189.667L1529.6 165.603H1670.47L1714.87 189.667H1565.94ZM1609.55 218.555L1568.28 191.223H1717.74L1768.18 218.555H1609.55ZM1659.08 251.364L1611.9 220.11H1771.05L1828.72 251.364H1659.08ZM1715.85 288.963L1661.43 252.92H1831.59L1898.09 288.963H1715.85ZM1281.94 1.55545L1293.97 9.52838H1382.48L1367.77 1.55545H1281.94ZM1771.45 218.555H1929.62L1870.02 191.223H1721.01L1771.45 218.555ZM1718.14 189.667H1866.63L1814.15 165.603H1673.74L1718.14 189.667ZM1670.87 164.048H1810.76L1764.25 142.719H1631.51L1670.87 164.048ZM1628.64 141.164H1760.85L1719.41 122.157H1593.57L1628.64 141.164ZM1590.7 120.602H1716.02L1678.9 103.582H1559.29L1590.7 120.602ZM1556.42 102.026H1675.51L1642.11 86.7125H1528.17L1556.42 102.026ZM1525.3 85.157H1638.72L1608.58 71.3372H1499.8L1525.3 85.157ZM1496.93 69.7818H1605.19L1577.87 57.2544H1473.81L1496.93 69.7818ZM1470.94 55.6989H1574.48L1549.64 44.3074H1449.92L1470.94 55.6989ZM1447.05 42.752H1546.25L1523.61 32.373H1427.9L1447.05 42.752ZM1425.03 30.8176H1520.22L1499.53 21.3284H1407.52L1425.03 30.8176ZM1404.65 19.7729H1496.14L1477.19 11.0838H1388.61L1404.65 19.7729ZM1385.74 9.52838H1473.8L1456.41 1.55545H1371.03L1385.74 9.52838ZM1499.86 19.7729L1480.91 11.0838H1569.02L1590.89 19.7729H1499.86ZM1523.95 30.8176L1503.25 21.3284H1594.8L1618.68 30.8176H1523.95ZM1549.97 42.752L1527.34 32.373H1622.59L1648.71 42.752H1549.97ZM1578.21 55.6989L1553.37 44.3074H1652.62L1681.28 55.6989H1578.21ZM1608.92 69.7818L1581.6 57.2544H1685.2L1716.72 69.7818H1608.92ZM1642.45 85.157L1612.31 71.3372H1720.63L1755.4 85.157H1642.45ZM1679.24 102.026L1645.84 86.7125H1759.32L1797.85 102.026H1679.24ZM1719.74 120.602L1682.63 103.582H1801.76L1844.59 120.602H1719.74ZM1764.58 141.164L1723.14 122.157H1848.5L1896.33 141.164H1764.58ZM1814.49 164.048L1767.98 142.719H1900.24L1953.91 164.048H1814.49ZM1460.13 1.55545L1477.52 9.52838H1565.11L1545.05 1.55545H1460.13ZM1802.06 102.026H1920.18L1876.51 86.7125H1763.53L1802.06 102.026ZM1759.62 85.157H1872.08L1832.67 71.3372H1724.84L1759.62 85.157ZM1720.93 69.7818H1828.23L1792.51 57.2544H1689.41L1720.93 69.7818ZM1685.49 55.6989H1788.07L1755.59 44.3074H1656.83L1685.49 55.6989ZM1652.91 42.752H1751.15L1721.56 32.373H1626.8L1652.91 42.752ZM1622.88 30.8176H1717.12L1690.06 21.3284H1599.01L1622.88 30.8176ZM1595.09 19.7729H1685.63L1660.85 11.0838H1573.23L1595.09 19.7729ZM1569.31 9.52838H1656.41L1633.68 1.55545H1549.25L1569.31 9.52838ZM1690.32 19.7729L1665.54 11.0838H1752.67L1780.36 19.7729H1690.32ZM1721.82 30.8176L1694.76 21.3284H1785.32L1815.56 30.8176H1721.82ZM1755.85 42.752L1726.26 32.373H1820.52L1853.6 42.752H1755.85ZM1792.77 55.6989L1760.29 44.3074H1858.56L1894.87 55.6989H1792.77ZM1832.94 69.7818L1797.21 57.2544H1899.83L1939.75 69.7818H1832.94ZM1638.37 1.55545L1661.11 9.52838H1747.71L1722.3 1.55545H1638.37Z" fill="url(#paint0_linear_1636_7619)"/>
<defs>
<linearGradient id="paint0_linear_1636_7619" x1="930.327" y1="-270.5" x2="946.827" y2="442.5" gradientUnits="userSpaceOnUse">
<stop stop-color="#040612" stop-opacity="0"/>
<stop offset="0.57308" stop-color="#0A5740" stop-opacity="0.05"/>
<stop offset="1" stop-color="#0E9462" stop-opacity="0.11"/>
</linearGradient>
</defs>
</svg>
