<svg width="169" height="343" viewBox="0 0 169 343" fill="none" xmlns="http://www.w3.org/2000/svg">
<path fill-rule="evenodd" clip-rule="evenodd" d="M60.8352 322.452C60.4452 321.721 59.5365 321.445 58.8056 321.835C57.063 322.765 53.3991 323.624 48.5065 324.091C43.6843 324.552 37.8711 324.613 31.9721 324.074C26.0677 323.534 20.1311 322.396 15.0382 320.486C9.92791 318.569 5.80311 315.926 3.33906 312.464C2.85863 311.789 1.92207 311.632 1.24717 312.112C0.572271 312.593 0.414619 313.529 0.895043 314.204C3.84175 318.344 8.58435 321.269 13.9846 323.295C19.4024 325.327 25.6197 326.506 31.6989 327.062C37.7836 327.618 43.7838 327.556 48.7916 327.078C53.7288 326.606 57.9113 325.713 60.218 324.482C60.9489 324.092 61.2252 323.183 60.8352 322.452Z" fill="#C5F57D"/>
<path fill-rule="evenodd" clip-rule="evenodd" d="M41.9525 340.627C41.7466 339.825 40.9292 339.341 40.1268 339.547C39.2111 339.782 37.2798 339.986 34.6882 340.007C32.1344 340.028 29.0472 339.872 25.8676 339.437C22.684 339.001 19.4444 338.291 16.5689 337.222C13.6811 336.147 11.2524 334.743 9.59398 332.974C9.02738 332.37 8.07813 332.339 7.47376 332.906C6.86939 333.472 6.83877 334.422 7.40537 335.026C9.49692 337.257 12.394 338.869 15.5227 340.033C18.6637 341.202 22.1315 341.954 25.4611 342.409C28.7948 342.865 32.0267 343.029 34.7129 343.007C37.3613 342.985 39.5911 342.782 40.8724 342.453C41.6749 342.247 42.1584 341.43 41.9525 340.627Z" fill="#C5F57D"/>
<path fill-rule="evenodd" clip-rule="evenodd" d="M167.675 31.55C167.066 32.1114 166.117 32.0726 165.555 31.4633C164.164 29.9538 161.461 27.9671 157.725 25.9903C154.016 24.028 149.38 22.1234 144.198 20.7347C133.816 17.9528 121.379 17.2756 109.82 22.1757C109.057 22.499 108.177 22.1428 107.853 21.3801C107.53 20.6174 107.886 19.737 108.649 19.4136C121.016 14.1713 134.181 14.9448 144.974 17.837C150.379 19.2853 155.225 21.2735 159.128 23.3386C163.003 25.3893 166.042 27.5646 167.762 29.4304C168.323 30.0397 168.284 30.9886 167.675 31.55Z" fill="#C5F57D"/>
<path fill-rule="evenodd" clip-rule="evenodd" d="M156.317 7.71688C155.922 8.44459 155.011 8.71359 154.283 8.31771C150.861 6.45612 147.139 4.78075 142.379 3.88249C137.616 2.98345 131.739 2.84925 124.016 4.17048C123.199 4.31016 122.424 3.76144 122.284 2.94487C122.145 2.12831 122.693 1.35311 123.51 1.21343C131.523 -0.157337 137.765 -0.0414763 142.936 0.934538C148.111 1.91133 152.139 3.73602 155.717 5.68242C156.444 6.07831 156.713 6.98916 156.317 7.71688Z" fill="#C5F57D"/>
</svg>
