<svg width="313" height="253" viewBox="0 0 313 253" fill="none" xmlns="http://www.w3.org/2000/svg">
<path d="M43.9577 164.648L43.9799 164.666L44.002 164.683L157.753 250.439L158.5 251L159.232 250.42L264.548 165.425C285.719 150.328 301.18 129.249 308.636 105.277L308.641 105.26C311.319 96.1679 312.408 86.7279 311.864 77.3088V77.2984L311.862 77.288C309.334 43.4087 284.334 14.7666 249.552 5.70364C215.325 -3.21456 178.821 8.69594 157.868 35.534C137.341 7.96418 100.718 -4.82028 65.9298 3.52138C30.5865 11.9961 4.70862 40.466 1.4498 74.6478C0.388692 84.0369 1.20893 93.5304 3.86886 102.635C10.1404 126.683 24.1405 148.33 43.9577 164.648Z" fill="#040612" stroke="#0E9462" stroke-width="1.86323"/>
</svg>
