<svg width="1920" height="400" viewBox="0 0 1920 400" fill="none" xmlns="http://www.w3.org/2000/svg">
<path fill-rule="evenodd" clip-rule="evenodd" d="M1687.01 399.777L37.8511 399.799L0 391.826V390.752L8.34694 392.511H93.6656L69.3965 386.797H0V385.774H65.0524L38.5513 379.534H0V378.512H34.2072L5.21877 371.687H0V370.664H0.874686L0 370.458V369.372L5.48398 370.664H102.195L74.1235 363.173H0V362.15H70.2905L39.4196 353.913H0V352.89H35.5867L1.53008 343.803H0V343.394V342.78V342.291L1.83333 342.78H112.954L80.2505 332.71H0V331.688H76.9287L40.5793 320.496H0V319.473H37.2574L0 308.001V306.975V306.875V305.952H126.992L88.4488 291.927H0V290.904H85.638L42.1516 275.08H0V274.057H39.3408L0 259.742V258.576L42.5443 274.057H188.913L148.504 256.085H0V255.062H146.204L99.9956 234.511H0V233.488H97.6959L44.4049 209.787H0V208.764H42.1052L0 190.038V188.809L44.8676 208.764H224.282L176.034 181.175H0V180.152H174.245L117.446 147.673H0V146.65H115.658L47.9267 107.92H0V106.897H46.1381L0 80.514V79.1675L48.4925 106.897H279.088L220.427 59.9734H0V58.9507H219.149L146.732 1.02274H0V-6.10352e-05H1920V1.02274H1863.67L1762.38 58.9507H1920V59.9734H1760.59L1678.54 106.897H1908.92L1920 101.971V103.199L1911.69 106.897H1920V107.92H1909.39L1822.3 146.65H1920V147.673H1820L1746.98 180.152H1920V181.175H1744.68L1682.64 208.764H1861.63L1920 187.525V188.691L1864.84 208.764H1920V209.787H1862.03L1796.89 233.488H1920V234.511H1794.08L1737.6 255.062H1893.02L1920 246.755V247.881L1896.68 255.062H1920V256.085H1893.35L1834.98 274.057H1920V275.08H1831.66L1780.27 290.904H1917.31L1920 290.187L1920 290.904L1920 291.291L1920 291.927H1917.62L1865.06 305.952H1920V306.975H1861.22L1814.39 319.473H1920V320.496H1810.55L1768.61 331.688H1884.8L1920 323.398V324.483L1889.4 331.688H1920V332.71H1885.06L1842.29 342.78H1920V343.803H1837.95L1799.35 352.89H1904.47L1920 349.619V350.69L1687.01 399.777ZM9.82766 371.687H106.028L131.606 378.512H38.8134L9.82766 371.687ZM43.1571 379.534H135.439L158.822 385.774H69.6557L43.1571 379.534ZM73.9994 386.797H162.655L184.069 392.511H98.2662L73.9994 386.797ZM102.61 393.533H187.902L207.549 398.776H124.875L102.61 393.533ZM120.277 398.776H38.0812L13.2009 393.533H98.0096L120.277 398.776ZM166.78 386.797L188.192 392.511H274.471L255.913 386.797H166.78ZM139.565 379.534L162.947 385.774H252.591L232.327 379.534H139.565ZM110.157 371.687L135.733 378.512H229.005L206.838 371.687H110.157ZM78.2544 363.173L106.324 370.664H203.516L179.188 363.173H78.2544ZM43.553 353.913L74.4216 362.15H175.867L149.113 353.913H43.553ZM5.66604 343.803L39.7202 352.89H145.791L116.276 343.803H5.66604ZM211.67 398.776L192.025 393.533H277.793L294.82 398.776H211.67ZM0.32271 306.975H129.803L164.149 319.473H40.9125L0.32271 306.975ZM44.2343 320.496H166.96L197.717 331.688H80.5826L44.2343 320.496ZM83.9043 332.71H200.527L228.2 342.78H116.607L83.9043 332.71ZM119.929 343.803H231.011L255.985 352.89H149.443L119.929 343.803ZM152.764 353.913H258.795L281.433 362.15H179.517L152.764 353.913ZM182.839 363.173H284.244L304.829 370.664H207.166L182.839 363.173ZM210.488 371.687H307.64L326.396 378.512H232.654L210.488 371.687ZM235.976 379.534H329.207L346.354 385.774H256.24L235.976 379.534ZM259.561 386.797H349.165L364.868 392.511H278.119L259.561 386.797ZM281.44 393.533H367.678L382.086 398.776H298.467L281.44 393.533ZM352.356 386.797L368.059 392.511H455.248L442.401 386.797H352.356ZM332.399 379.534L349.546 385.774H440.101L426.072 379.534H332.399ZM310.833 371.687L329.589 378.512H423.772L408.427 371.687H310.833ZM287.438 363.173L308.022 370.664H406.127L389.285 363.173H287.438ZM261.99 353.913L284.627 362.15H386.985L368.464 353.913H261.99ZM234.207 343.803L259.18 352.89H366.164L345.731 343.803H234.207ZM203.725 332.71L231.396 342.78H343.431L320.791 332.71H203.725ZM170.158 320.496L200.914 331.688H318.491L293.327 320.496H170.158ZM133.003 306.975L167.348 319.473H291.027L262.926 306.975H133.003ZM91.6504 291.927L130.192 305.952H260.626L229.092 291.927H91.6504ZM45.355 275.08L88.8398 290.904H226.792L191.213 275.08H45.355ZM385.276 398.776L370.869 393.533H457.548L469.336 398.776H385.276ZM47.1673 209.787H226.071L267.52 233.488H100.458L47.1673 209.787ZM102.757 234.511H269.308L305.248 255.062H148.965L102.757 234.511ZM151.265 256.085H307.037L338.467 274.057H191.674L151.265 256.085ZM193.974 275.08H340.255L367.928 290.904H229.552L193.974 275.08ZM231.852 291.927H369.717L394.244 305.952H263.386L231.852 291.927ZM265.686 306.975H396.032L417.889 319.473H293.787L265.686 306.975ZM296.086 320.496H419.677L439.25 331.688H321.25L296.086 320.496ZM323.55 332.71H441.038L458.648 342.78H346.19L323.55 332.71ZM348.49 343.803H460.436L476.329 352.89H368.923L348.49 343.803ZM371.222 353.913H478.117L492.523 362.15H389.744L371.222 353.913ZM392.043 363.173H494.312L507.411 370.664H408.885L392.043 363.173ZM411.185 371.687H509.2L521.135 378.512H426.53L411.185 371.687ZM428.83 379.534H522.924L533.835 385.774H442.859L428.83 379.534ZM445.159 386.797H535.624L545.617 392.511H458.006L445.159 386.797ZM460.306 393.533H547.405L556.573 398.776H472.093L460.306 393.533ZM537.975 386.797L547.967 392.511H636.141L628.997 386.797H537.975ZM525.274 379.534L536.186 385.774H627.719L619.919 379.534H525.274ZM511.55 371.687L523.486 378.512H618.64L610.108 371.687H511.55ZM496.662 363.173L509.762 370.664H608.829L599.465 363.173H496.662ZM480.468 353.913L494.874 362.15H598.187L587.889 353.913H480.468ZM462.787 343.803L478.68 352.89H586.61L575.249 343.803H462.787ZM443.39 332.71L460.999 342.78H573.971L561.383 332.71H443.39ZM422.029 320.496L441.601 331.688H560.104L546.113 320.496H422.029ZM398.384 306.975L420.24 319.473H544.834L529.21 306.975H398.384ZM372.069 291.927L396.595 305.952H527.932L510.398 291.927H372.069ZM342.608 275.08L370.28 290.904H509.12L489.338 275.08H342.608ZM309.389 256.085L340.819 274.057H488.059L465.592 256.085H309.389ZM271.661 234.511L307.601 255.062H464.313L438.621 234.511H271.661ZM228.424 209.787L269.872 233.488H437.343L407.713 209.787H228.424ZM178.387 181.175L226.635 208.764H406.434L371.944 181.175H178.387ZM119.8 147.673L176.599 180.152H370.665L330.063 147.673H119.8ZM50.2812 107.92L118.012 146.65H328.784L280.366 107.92H50.2812ZM558.924 398.776L549.756 393.533H637.419L643.973 398.776H558.924ZM148.72 1.02274H432.876L476.287 58.9507H221.138L148.72 1.02274ZM222.416 59.9734H477.053L512.218 106.897H281.076L222.416 59.9734ZM282.355 107.92H512.984L542.009 146.65H330.773L282.355 107.92ZM332.051 147.673H542.775L567.115 180.152H372.654L332.051 147.673ZM373.933 181.175H567.882L588.557 208.764H408.423L373.933 181.175ZM409.702 209.787H589.324L607.086 233.488H439.331L409.702 209.787ZM440.61 234.511H607.852L623.253 255.062H466.302L440.61 234.511ZM467.58 256.085H624.02L637.488 274.057H490.048L467.58 256.085ZM491.327 275.08H638.255L650.113 290.904H511.108L491.327 275.08ZM512.387 291.927H650.88L661.39 305.952H529.92L512.387 291.927ZM531.199 306.975H662.157L671.523 319.473H546.823L531.199 306.975ZM548.101 320.496H672.289L680.676 331.688H562.093L548.101 320.496ZM563.371 332.71H681.443L688.989 342.78H575.959L563.371 332.71ZM577.238 343.803H689.755L696.566 352.89H588.599L577.238 343.803ZM589.877 353.913H697.332L703.505 362.15H600.175L589.877 353.913ZM601.454 363.173H704.272L709.885 370.664H610.818L601.454 363.173ZM612.097 371.687H710.652L715.766 378.512H620.629L612.097 371.687ZM621.907 379.534H716.533L721.209 385.774H629.708L621.907 379.534ZM630.986 386.797H721.975L726.257 392.511H638.129L630.986 386.797ZM639.408 393.533H727.024L730.953 398.776H645.962L639.408 393.533ZM723.68 386.797L727.962 392.511H816.694L815.261 386.797H723.68ZM718.238 379.534L722.914 385.774H815.005L813.44 379.534H718.238ZM712.357 371.687L717.472 378.512H813.184L811.473 371.687H712.357ZM705.977 363.173L711.59 370.664H811.216L809.339 363.173H705.977ZM699.037 353.913L705.21 362.15H809.082L807.017 353.913H699.037ZM691.461 343.803L698.271 352.89H806.76L804.482 343.803H691.461ZM683.148 332.71L690.694 342.78H804.226L801.701 332.71H683.148ZM673.994 320.496L682.382 331.688H801.445L798.639 320.496H673.994ZM663.862 306.975L673.228 319.473H798.382L795.249 306.975H663.862ZM652.585 291.927L663.095 305.952H794.993L791.476 291.927H652.585ZM639.96 275.08L651.818 290.904H791.22L787.253 275.08H639.96ZM625.725 256.085L639.193 274.057H786.996L782.491 256.085H625.725ZM609.557 234.511L624.958 255.062H782.234L777.082 234.511H609.557ZM591.029 209.787L608.791 233.488H776.825L770.883 209.787H591.029ZM569.587 181.175L590.263 208.764H770.627L763.71 181.175H569.587ZM544.481 147.673L568.82 180.152H763.453L755.311 147.673H544.481ZM514.69 107.92L543.714 146.65H755.054L745.344 107.92H514.69ZM478.759 59.9734L513.923 106.897H745.088L733.324 59.9734H478.759ZM434.581 1.02274L477.992 58.9507H733.067L718.544 1.02274H434.581ZM732.658 398.776L728.729 393.533H816.95L818.264 398.776H732.658ZM720.089 1.02274H1004.43L989.963 58.9507H734.612L720.089 1.02274ZM734.868 59.9734H989.707L977.987 106.897H746.632L734.868 59.9734ZM746.889 107.92H977.731L968.057 146.65H756.599L746.889 107.92ZM756.855 147.673H967.802L959.689 180.152H764.998L756.855 147.673ZM765.254 181.175H959.434L952.543 208.764H772.171L765.254 181.175ZM772.428 209.787H952.287L946.367 233.488H778.37L772.428 209.787ZM778.626 234.511H946.112L940.978 255.062H783.779L778.626 234.511ZM784.035 256.085H940.723L936.234 274.057H788.541L784.035 256.085ZM788.797 275.08H935.978L932.026 290.904H792.765L788.797 275.08ZM793.021 291.927H931.77L928.267 305.952H796.537L793.021 291.927ZM796.794 306.975H928.012L924.89 319.473H799.927L796.794 306.975ZM800.183 320.496H924.635L921.839 331.688H802.989L800.183 320.496ZM803.246 332.71H921.584L919.069 342.78H805.77L803.246 332.71ZM806.027 343.803H918.813L916.543 352.89H808.305L806.027 343.803ZM808.561 353.913H916.288L914.23 362.15H810.627L808.561 353.913ZM810.883 363.173H913.975L912.104 370.664H812.761L810.883 363.173ZM813.017 371.687H911.848L910.144 378.512H814.729L813.017 371.687ZM814.985 379.534H909.888L908.33 385.774H816.549L814.985 379.534ZM816.806 386.797H908.074L906.647 392.511H818.238L816.806 386.797ZM818.495 393.533H906.391L905.082 398.776H819.809L818.495 393.533ZM909.619 386.797L908.191 392.511H996.778L1001.06 386.797H909.619ZM911.433 379.534L909.874 385.774H1001.83L1006.5 379.534H911.433ZM913.393 371.687L911.688 378.512H1007.27L1012.38 371.687H913.393ZM915.519 363.173L913.648 370.664H1013.15L1018.76 363.173H915.519ZM917.832 353.913L915.775 362.15H1019.53L1025.7 353.913H917.832ZM920.358 343.803L918.088 352.89H1026.47L1033.28 343.803H920.358ZM923.128 332.71L920.613 342.78H1034.05L1041.59 332.71H923.128ZM926.179 320.496L923.384 331.688H1042.36L1050.75 320.496H926.179ZM929.556 306.975L926.435 319.473H1051.51L1060.88 306.975H929.556ZM933.315 291.927L929.812 305.952H1061.64L1072.16 291.927H933.315ZM937.523 275.08L933.57 290.904H1072.92L1084.78 275.08H937.523ZM942.267 256.085L937.778 274.057H1085.55L1099.02 256.085H942.267ZM947.656 234.511L942.523 255.062H1099.78L1115.18 234.511H947.656ZM953.832 209.787L947.912 233.488H1115.95L1133.71 209.787H953.832ZM960.978 181.175L954.087 208.764H1134.48L1155.15 181.175H960.978ZM969.346 147.673L961.234 180.152H1155.92L1180.26 147.673H969.346ZM979.276 107.92L969.602 146.65H1181.03L1210.05 107.92H979.276ZM991.252 59.9734L979.531 106.897H1210.82L1245.98 59.9734H991.252ZM1005.98 1.02274L991.507 58.9507H1246.75L1290.16 1.02274H1005.98ZM906.626 398.776L907.936 393.533H996.011L992.082 398.776H906.626ZM1291.86 1.02274H1575.77L1503.42 58.9507H1248.45L1291.86 1.02274ZM1247.69 59.9734H1502.14L1443.53 106.897H1212.52L1247.69 59.9734ZM1211.76 107.92H1442.25L1393.88 146.65H1182.73L1211.76 107.92ZM1181.96 147.673H1392.6L1352.03 180.152H1157.62L1181.96 147.673ZM1156.86 181.175H1350.75L1316.29 208.764H1136.18L1156.86 181.175ZM1135.42 209.787H1315.02L1285.41 233.488H1117.65L1135.42 209.787ZM1116.89 234.511H1284.13L1258.46 255.062H1101.49L1116.89 234.511ZM1100.72 256.085H1257.19L1234.74 274.057H1087.25L1100.72 256.085ZM1086.49 275.08H1233.46L1213.7 290.904H1074.63L1086.49 275.08ZM1073.86 291.927H1212.42L1194.9 305.952H1063.35L1073.86 291.927ZM1062.58 306.975H1193.62L1178.01 319.473H1053.22L1062.58 306.975ZM1052.45 320.496H1176.73L1162.76 331.688H1044.06L1052.45 320.496ZM1043.3 332.71H1161.48L1148.9 342.78H1035.75L1043.3 332.71ZM1034.98 343.803H1147.62L1136.27 352.89H1028.17L1034.98 343.803ZM1027.41 353.913H1134.99L1124.71 362.15H1021.23L1027.41 353.913ZM1020.47 363.173H1123.43L1114.07 370.664H1014.86L1020.47 363.173ZM1014.09 371.687H1112.79L1104.27 378.512H1008.97L1014.09 371.687ZM1008.21 379.534H1102.99L1095.2 385.774H1003.53L1008.21 379.534ZM1002.77 386.797H1093.92L1086.78 392.511H998.483L1002.77 386.797ZM997.716 393.533H1085.51L1078.96 398.776H993.788L997.716 393.533ZM1095.91 386.797L1088.77 392.511H1176.76L1186.75 386.797H1095.91ZM1104.98 379.534L1097.19 385.774H1188.54L1199.45 379.534H1104.98ZM1114.78 371.687L1106.26 378.512H1201.24L1213.18 371.687H1114.78ZM1125.42 363.173L1116.06 370.664H1214.96L1228.06 363.173H1125.42ZM1136.98 353.913L1126.69 362.15H1229.85L1244.25 353.913H1136.98ZM1149.61 343.803L1138.26 352.89H1246.04L1261.93 343.803H1149.61ZM1163.47 332.71L1150.89 342.78H1263.72L1281.33 332.71H1163.47ZM1178.72 320.496L1164.74 331.688H1283.12L1302.69 320.496H1178.72ZM1195.61 306.975L1180 319.473H1304.48L1326.33 306.975H1195.61ZM1214.41 291.927L1196.89 305.952H1328.12L1352.64 291.927H1214.41ZM1235.45 275.08L1215.68 290.904H1354.43L1382.1 275.08H1235.45ZM1259.18 256.085L1236.73 274.057H1383.89L1415.32 256.085H1259.18ZM1286.12 234.511L1260.45 255.062H1417.11L1453.04 234.511H1286.12ZM1317 209.787L1287.4 233.488H1454.83L1496.28 209.787H1317ZM1352.74 181.175L1318.28 208.764H1498.06L1546.31 181.175H1352.74ZM1394.59 147.673L1354.02 180.152H1548.1L1604.89 147.673H1394.59ZM1444.24 107.92L1395.87 146.65H1606.68L1674.4 107.92H1444.24ZM1504.13 59.9734L1445.52 106.897H1676.19L1758.24 59.9734H1504.13ZM1577.76 1.02274L1505.41 58.9507H1760.03L1861.32 1.02274H1577.76ZM1080.95 398.776L1087.49 393.533H1174.97L1165.81 398.776H1080.95ZM1676.75 107.92H1906.62L1819.54 146.65H1609.03L1676.75 107.92ZM1607.24 147.673H1817.24L1744.21 180.152H1550.45L1607.24 147.673ZM1548.66 181.175H1741.91L1679.88 208.764H1500.41L1548.66 181.175ZM1498.63 209.787H1677.58L1624.29 233.488H1457.18L1498.63 209.787ZM1455.39 234.511H1621.99L1575.78 255.062H1419.46L1455.39 234.511ZM1417.67 256.085H1573.48L1533.07 274.057H1386.24L1417.67 256.085ZM1384.45 275.08H1530.77L1495.19 290.904H1356.78L1384.45 275.08ZM1354.99 291.927H1492.89L1461.36 305.952H1330.47L1354.99 291.927ZM1328.68 306.975H1459.06L1430.96 319.473H1306.83L1328.68 306.975ZM1305.04 320.496H1428.66L1403.5 331.688H1285.47L1305.04 320.496ZM1283.68 332.71H1401.2L1378.56 342.78H1266.07L1283.68 332.71ZM1264.28 343.803H1376.26L1355.82 352.89H1248.39L1264.28 343.803ZM1246.6 353.913H1353.52L1335 362.15H1232.2L1246.6 353.913ZM1230.41 363.173H1332.7L1315.86 370.664H1217.31L1230.41 363.173ZM1215.52 371.687H1313.56L1298.21 378.512H1203.59L1215.52 371.687ZM1201.8 379.534H1295.91L1281.89 385.774H1190.89L1201.8 379.534ZM1189.1 386.797H1279.59L1266.74 392.511H1179.11L1189.1 386.797ZM1177.32 393.533H1264.44L1252.65 398.776H1168.16L1177.32 393.533ZM1282.35 386.797L1269.5 392.511H1356.69L1372.39 386.797H1282.35ZM1298.68 379.534L1284.65 385.774H1375.2L1392.34 379.534H1298.68ZM1316.32 371.687L1300.98 378.512H1395.16L1413.91 371.687H1316.32ZM1335.46 363.173L1318.62 370.664H1416.72L1437.31 363.173H1335.46ZM1356.29 353.913L1337.76 362.15H1440.12L1462.75 353.913H1356.29ZM1379.02 343.803L1358.59 352.89H1465.57L1490.54 343.803H1379.02ZM1403.96 332.71L1381.32 342.78H1493.35L1521.02 332.71H1403.96ZM1431.42 320.496L1406.26 331.688H1523.83L1554.59 320.496H1431.42ZM1461.82 306.975L1433.72 319.473H1557.4L1591.74 306.975H1461.82ZM1495.66 291.927L1464.12 305.952H1594.55L1633.1 291.927H1495.66ZM1533.54 275.08L1497.96 290.904H1635.91L1679.39 275.08H1533.54ZM1576.25 256.085L1535.84 274.057H1682.2L1731.59 256.085H1576.25ZM1624.75 234.511L1578.55 255.062H1734.4L1790.88 234.511H1624.75ZM1680.34 209.787L1627.05 233.488H1793.69L1858.82 209.787H1680.34ZM1255.41 398.776L1267.2 393.533H1353.87L1339.47 398.776H1255.41ZM1734.79 256.085H1889.7L1831.33 274.057H1685.4L1734.79 256.085ZM1682.59 275.08H1828.01L1776.61 290.904H1639.11L1682.59 275.08ZM1636.3 291.927H1773.29L1727.74 305.952H1597.75L1636.3 291.927ZM1594.94 306.975H1724.42L1683.83 319.473H1560.6L1594.94 306.975ZM1557.79 320.496H1680.51L1644.16 331.688H1527.03L1557.79 320.496ZM1524.22 332.71H1640.84L1608.14 342.78H1496.55L1524.22 332.71ZM1493.74 343.803H1604.82L1575.3 352.89H1468.76L1493.74 343.803ZM1465.95 353.913H1571.98L1545.23 362.15H1443.31L1465.95 353.913ZM1440.5 363.173H1541.91L1517.58 370.664H1419.92L1440.5 363.173ZM1417.11 371.687H1514.26L1492.09 378.512H1398.35L1417.11 371.687ZM1395.54 379.534H1488.77L1468.5 385.774H1378.39L1395.54 379.534ZM1375.58 386.797H1465.18L1446.63 392.511H1359.88L1375.58 386.797ZM1357.07 393.533H1443.3L1426.28 398.776H1342.66L1357.07 393.533ZM1468.83 386.797L1450.27 392.511H1536.56L1557.97 386.797H1468.83ZM1492.42 379.534L1472.15 385.774H1561.8L1585.18 379.534H1492.42ZM1517.9 371.687L1495.74 378.512H1589.02L1614.59 371.687H1517.9ZM1545.55 363.173L1521.23 370.664H1618.43L1646.5 363.173H1545.55ZM1575.63 353.913L1548.88 362.15H1650.33L1681.2 353.913H1575.63ZM1608.47 343.803L1578.95 352.89H1685.03L1719.08 343.803H1608.47ZM1644.49 332.71L1611.79 342.78H1722.92L1760.65 332.71H1644.49ZM1684.16 320.496L1647.81 331.688H1764.48L1806.42 320.496H1684.16ZM1728.07 306.975L1687.48 319.473H1810.26L1857.09 306.975H1728.07ZM1776.95 291.927L1731.4 305.952H1860.92L1913.48 291.927H1776.95ZM1429.92 398.776L1446.95 393.533H1532.73L1513.08 398.776H1429.92ZM1764.78 332.71H1880.45L1837.69 342.78H1727.04L1764.78 332.71ZM1723.21 343.803H1833.34L1794.75 352.89H1689.15L1723.21 343.803ZM1685.32 353.913H1790.41L1755.42 362.15H1654.45L1685.32 353.913ZM1650.62 363.173H1751.08L1719.27 370.664H1622.55L1650.62 363.173ZM1618.71 371.687H1714.92L1685.94 378.512H1593.14L1618.71 371.687ZM1589.3 379.534H1681.59L1655.09 385.774H1565.92L1589.3 379.534ZM1562.09 386.797H1650.75L1626.48 392.511H1540.68L1562.09 386.797ZM1536.84 393.533H1622.14L1599.88 398.776H1517.2L1536.84 393.533ZM1655.35 386.797L1631.08 392.511H1716.4L1743.53 386.797H1655.35ZM1686.19 379.534L1659.69 385.774H1748.38L1778 379.534H1686.19ZM1719.52 371.687L1690.54 378.512H1782.85L1815.25 371.687H1719.52ZM1755.68 363.173L1723.87 370.664H1820.11L1855.66 363.173H1755.68ZM1795.01 353.913L1760.03 362.15H1860.52L1899.62 353.913H1795.01ZM1604.47 398.776L1626.74 393.533H1711.55L1686.66 398.776H1604.47Z" fill="url(#paint0_linear_1636_4804)"/>
<defs>
<linearGradient id="paint0_linear_1636_4804" x1="927.727" y1="405.059" x2="927.727" y2="110.142" gradientUnits="userSpaceOnUse">
<stop stop-color="#040612" stop-opacity="0"/>
<stop offset="1" stop-color="#0E9462" stop-opacity="0.22"/>
</linearGradient>
</defs>
</svg>
