<svg width="39" height="39" viewBox="0 0 39 39" fill="none" xmlns="http://www.w3.org/2000/svg">
<mask id="path-1-inside-1_613_1173" fill="white">
<path fill-rule="evenodd" clip-rule="evenodd" d="M30.1735 30.1735C35.4056 27.5654 38.9997 22.1616 38.9997 15.9184C38.9997 7.12691 31.8728 0 23.0814 0C16.8381 0 11.4342 3.59423 8.82617 8.82638C10.9617 7.76186 13.3701 7.16309 15.9184 7.16309C24.7098 7.16309 31.8367 14.29 31.8367 23.0815C31.8367 25.6297 31.238 28.038 30.1735 30.1735Z"/>
</mask>
<path fill-rule="evenodd" clip-rule="evenodd" d="M30.1735 30.1735C35.4056 27.5654 38.9997 22.1616 38.9997 15.9184C38.9997 7.12691 31.8728 0 23.0814 0C16.8381 0 11.4342 3.59423 8.82617 8.82638C10.9617 7.76186 13.3701 7.16309 15.9184 7.16309C24.7098 7.16309 31.8367 14.29 31.8367 23.0815C31.8367 25.6297 31.238 28.038 30.1735 30.1735Z" fill="#CCCEEF"/>
<path d="M30.1735 30.1735L29.2786 29.7274L27.9456 32.4014L30.6197 31.0685L30.1735 30.1735ZM8.82617 8.82638L7.9312 8.38027L6.59828 11.0543L9.2723 9.72135L8.82617 8.82638ZM37.9997 15.9184C37.9997 21.768 34.6332 26.8331 29.7274 29.2785L30.6197 31.0685C36.178 28.2977 39.9997 22.5553 39.9997 15.9184H37.9997ZM23.0814 1C31.3206 1 37.9997 7.67919 37.9997 15.9184H39.9997C39.9997 6.57462 32.4251 -1 23.0814 -1V1ZM9.72115 9.2725C12.1666 4.3666 17.2317 1 23.0814 1V-1C16.4444 -1 10.7019 2.82185 7.9312 8.38027L9.72115 9.2725ZM9.2723 9.72135C11.2724 8.72435 13.5284 8.16309 15.9184 8.16309V6.16309C13.2118 6.16309 10.651 6.79937 8.38005 7.93141L9.2723 9.72135ZM15.9184 8.16309C24.1576 8.16309 30.8367 14.8423 30.8367 23.0815H32.8367C32.8367 13.7377 25.2621 6.16309 15.9184 6.16309V8.16309ZM30.8367 23.0815C30.8367 25.4714 30.2755 27.7273 29.2786 29.7274L31.0685 30.6196C32.2005 28.3487 32.8367 25.7879 32.8367 23.0815H30.8367Z" fill="#070710" mask="url(#path-1-inside-1_613_1173)"/>
<mask id="path-3-inside-2_613_1173" fill="white">
<path fill-rule="evenodd" clip-rule="evenodd" d="M15.9184 38.9999C24.7099 38.9999 31.8368 31.873 31.8368 23.0815C31.8368 14.29 24.7099 7.16309 15.9184 7.16309C7.12691 7.16309 0 14.29 0 23.0815C0 26.4755 1.06221 29.6215 2.87233 32.205C2.9621 32.0782 3.06568 31.9551 3.1839 31.8369L10.3472 25.4695C9.55124 24.6736 7.9594 21.4899 7.56144 19.1021L23.4798 15.5205L19.8982 31.4389C17.5104 31.0409 15.1227 29.8471 13.5308 28.6532L7.1635 35.8165C7.04493 35.935 6.92491 36.0406 6.80398 36.1339C9.38582 37.9402 12.5284 38.9999 15.9184 38.9999Z"/>
</mask>
<path fill-rule="evenodd" clip-rule="evenodd" d="M15.9184 38.9999C24.7099 38.9999 31.8368 31.873 31.8368 23.0815C31.8368 14.29 24.7099 7.16309 15.9184 7.16309C7.12691 7.16309 0 14.29 0 23.0815C0 26.4755 1.06221 29.6215 2.87233 32.205C2.9621 32.0782 3.06568 31.9551 3.1839 31.8369L10.3472 25.4695C9.55124 24.6736 7.9594 21.4899 7.56144 19.1021L23.4798 15.5205L19.8982 31.4389C17.5104 31.0409 15.1227 29.8471 13.5308 28.6532L7.1635 35.8165C7.04493 35.935 6.92491 36.0406 6.80398 36.1339C9.38582 37.9402 12.5284 38.9999 15.9184 38.9999Z" fill="#CCCEEF"/>
<path d="M2.87233 32.205L2.05334 32.7788L2.86825 33.9419L3.68861 32.7827L2.87233 32.205ZM3.1839 31.8369L2.51953 31.0895L2.49757 31.109L2.4768 31.1297L3.1839 31.8369ZM10.3472 25.4695L11.0115 26.2169L11.8042 25.5123L11.0543 24.7624L10.3472 25.4695ZM7.56144 19.1021L7.34192 18.1265L6.41963 18.3341L6.57504 19.2665L7.56144 19.1021ZM23.4798 15.5205L24.4555 15.74L24.8024 14.1979L23.2603 14.5449L23.4798 15.5205ZM19.8982 31.4389L19.7338 32.4253L20.6663 32.5807L20.8738 31.6584L19.8982 31.4389ZM13.5308 28.6532L14.1308 27.8532L13.3947 27.3011L12.7834 27.9888L13.5308 28.6532ZM7.1635 35.8165L7.8706 36.5236L7.89138 36.5028L7.91091 36.4808L7.1635 35.8165ZM6.80398 36.1339L6.19306 35.3422L5.11595 36.1734L6.23075 36.9533L6.80398 36.1339ZM30.8368 23.0815C30.8368 31.3207 24.1576 37.9999 15.9184 37.9999V39.9999C25.2622 39.9999 32.8368 32.4252 32.8368 23.0815H30.8368ZM15.9184 8.16309C24.1576 8.16309 30.8368 14.8423 30.8368 23.0815H32.8368C32.8368 13.7377 25.2622 6.16309 15.9184 6.16309V8.16309ZM1 23.0815C1 14.8423 7.67919 8.16309 15.9184 8.16309V6.16309C6.57462 6.16309 -1 13.7377 -1 23.0815H1ZM3.69132 31.6312C1.99518 29.2103 1 26.2636 1 23.0815H-1C-1 26.6874 0.129241 30.0326 2.05334 32.7788L3.69132 31.6312ZM2.4768 31.1297C2.31955 31.287 2.17926 31.4533 2.05605 31.6274L3.68861 32.7827C3.74495 32.7031 3.81182 32.6231 3.891 32.544L2.4768 31.1297ZM9.68279 24.7221L2.51953 31.0895L3.84826 32.5843L11.0115 26.2169L9.68279 24.7221ZM6.57504 19.2665C6.79394 20.5799 7.32878 22.0619 7.896 23.2994C8.18221 23.9239 8.48477 24.5038 8.77353 24.9873C9.05169 25.4531 9.35126 25.8878 9.64005 26.1766L11.0543 24.7624C10.9451 24.6532 10.7472 24.3915 10.4906 23.9619C10.2446 23.55 9.97511 23.0355 9.71413 22.4661C9.18695 21.3159 8.72689 20.0121 8.54783 18.9377L6.57504 19.2665ZM23.2603 14.5449L7.34192 18.1265L7.78095 20.0778L23.6994 16.4961L23.2603 14.5449ZM20.8738 31.6584L24.4555 15.74L22.5042 15.301L18.9226 31.2194L20.8738 31.6584ZM12.9308 29.4532C14.6252 30.724 17.1592 31.9962 19.7338 32.4253L20.0626 30.4525C17.8617 30.0857 15.6201 28.9701 14.1308 27.8532L12.9308 29.4532ZM7.91091 36.4808L14.2782 29.3175L12.7834 27.9888L6.41609 35.1521L7.91091 36.4808ZM7.41491 36.9256C7.57136 36.8049 7.72336 36.6708 7.8706 36.5236L6.45639 35.1094C6.3665 35.1992 6.27847 35.2763 6.19306 35.3422L7.41491 36.9256ZM15.9184 37.9999C12.74 37.9999 9.79648 37.007 7.37722 35.3145L6.23075 36.9533C8.97516 38.8733 12.3167 39.9999 15.9184 39.9999V37.9999Z" fill="#070710" mask="url(#path-3-inside-2_613_1173)"/>
<path opacity="0.4" fill-rule="evenodd" clip-rule="evenodd" d="M8.82725 8.82627C10.9627 7.76182 13.371 7.16309 15.9192 7.16309C24.7107 7.16309 31.8376 14.29 31.8376 23.0815C31.8376 25.6296 31.2389 28.038 30.1744 30.1734C28.0389 31.2379 25.6306 31.8366 23.0825 31.8366C14.291 31.8366 7.16406 24.7097 7.16406 15.9182C7.16406 13.3701 7.76279 10.9617 8.82725 8.82627Z" fill="#7130C3"/>
</svg>
