<svg width="173" height="39" viewBox="0 0 173 39" fill="none" xmlns="http://www.w3.org/2000/svg">
<path d="M60.192 31.272C57.9707 31.272 55.9533 30.8073 54.14 29.878C52.3267 28.9487 50.8873 27.566 49.822 25.73C48.7567 23.894 48.224 21.684 48.224 19.1C48.224 16.516 48.7567 14.306 49.822 12.47C50.91 10.634 52.3607 9.25133 54.174 8.322C56.01 7.39267 58.016 6.928 60.192 6.928C62.164 6.928 63.9433 7.27933 65.53 7.982C67.1167 8.68467 68.4087 9.682 69.406 10.974C70.4033 12.266 71.004 13.762 71.208 15.462H65.836C65.6773 14.2153 65.0653 13.218 64 12.47C62.9573 11.6993 61.6767 11.314 60.158 11.314C58.866 11.314 57.71 11.62 56.69 12.232C55.67 12.8213 54.8653 13.7053 54.276 14.884C53.6867 16.04 53.392 17.4453 53.392 19.1C53.392 20.7547 53.6867 22.1713 54.276 23.35C54.8653 24.506 55.67 25.3787 56.69 25.968C57.71 26.5573 58.866 26.852 60.158 26.852C61.6767 26.852 62.9687 26.478 64.034 25.73C65.122 24.9593 65.768 23.962 65.972 22.738H71.106C70.9473 24.4153 70.3807 25.9 69.406 27.192C68.454 28.484 67.1733 29.4927 65.564 30.218C63.9773 30.9207 62.1867 31.272 60.192 31.272ZM80.9455 31.272C79.2229 31.272 77.6702 30.898 76.2875 30.15C74.9049 29.3793 73.8282 28.3253 73.0575 26.988C72.2869 25.628 71.9015 24.1093 71.9015 22.432C71.9015 20.7547 72.2869 19.2473 73.0575 17.91C73.8282 16.55 74.9049 15.496 76.2875 14.748C77.6702 13.9773 79.2229 13.592 80.9455 13.592C82.6682 13.592 84.2209 13.9773 85.6035 14.748C86.9862 15.496 88.0629 16.55 88.8335 17.91C89.6042 19.2473 89.9895 20.7547 89.9895 22.432C89.9895 24.1093 89.6042 25.628 88.8335 26.988C88.0629 28.3253 86.9862 29.3793 85.6035 30.15C84.2209 30.898 82.6682 31.272 80.9455 31.272ZM80.9455 27.192C82.2149 27.192 83.2462 26.75 84.0395 25.866C84.8329 24.982 85.2295 23.8373 85.2295 22.432C85.2295 21.004 84.8329 19.848 84.0395 18.964C83.2462 18.08 82.2149 17.638 80.9455 17.638C79.6762 17.638 78.6449 18.08 77.8515 18.964C77.0582 19.848 76.6615 21.004 76.6615 22.432C76.6615 23.8373 77.0582 24.982 77.8515 25.866C78.6449 26.75 79.6762 27.192 80.9455 27.192ZM91.8882 13.864H96.6142V31H91.8882V13.864ZM96.7842 6.418V11.416H91.7522V6.418H96.7842ZM99.4678 13.864H104.194V16.244C104.67 15.4053 105.361 14.7593 106.268 14.306C107.197 13.83 108.251 13.592 109.43 13.592C110.699 13.592 111.81 13.8753 112.762 14.442C113.737 15.0087 114.485 15.802 115.006 16.822C115.527 17.842 115.788 19.0093 115.788 20.324V31H111.028V21.378C111.028 20.3353 110.722 19.4853 110.11 18.828C109.498 18.148 108.705 17.808 107.73 17.808C106.687 17.808 105.837 18.1707 105.18 18.896C104.523 19.5987 104.194 20.5053 104.194 21.616V31H99.4678V13.864ZM118.436 13.864H123.162V15.734C123.683 15.054 124.352 14.5327 125.168 14.17C126.007 13.7847 126.97 13.592 128.058 13.592C129.645 13.592 131.027 13.9547 132.206 14.68C133.407 15.4053 134.325 16.4367 134.96 17.774C135.617 19.1113 135.946 20.664 135.946 22.432C135.946 24.2 135.595 25.7527 134.892 27.09C134.212 28.4047 133.249 29.436 132.002 30.184C130.755 30.9093 129.316 31.272 127.684 31.272C126.709 31.272 125.825 31.1133 125.032 30.796C124.239 30.4787 123.615 30.0367 123.162 29.47V37.936H118.436V13.864ZM127.072 27.192C128.319 27.192 129.327 26.7613 130.098 25.9C130.869 25.016 131.254 23.86 131.254 22.432C131.254 20.9813 130.869 19.8253 130.098 18.964C129.35 18.08 128.341 17.638 127.072 17.638C125.803 17.638 124.783 18.08 124.012 18.964C123.264 19.8253 122.89 20.9813 122.89 22.432C122.89 23.86 123.275 25.016 124.046 25.9C124.817 26.7613 125.825 27.192 127.072 27.192ZM145.11 31.272C142.594 31.272 140.611 30.4787 139.16 28.892C137.732 27.2827 137.018 25.1293 137.018 22.432C137.018 20.664 137.336 19.1113 137.97 17.774C138.628 16.4367 139.557 15.4053 140.758 14.68C141.96 13.9547 143.388 13.592 145.042 13.592C146.062 13.592 146.98 13.7733 147.796 14.136C148.635 14.476 149.304 14.952 149.802 15.564V13.864H154.528V31H149.802V29.198C149.349 29.8327 148.703 30.3427 147.864 30.728C147.026 31.0907 146.108 31.272 145.11 31.272ZM145.858 27.192C147.128 27.192 148.148 26.7613 148.918 25.9C149.689 25.016 150.074 23.86 150.074 22.432C150.074 20.9813 149.689 19.8253 148.918 18.964C148.148 18.08 147.128 17.638 145.858 17.638C144.612 17.638 143.603 18.08 142.832 18.964C142.062 19.8253 141.676 20.9813 141.676 22.432C141.676 23.86 142.062 25.016 142.832 25.9C143.603 26.7613 144.612 27.192 145.858 27.192ZM161.891 30.83L155.669 13.864H160.497L164.101 24.914L167.671 13.864H172.533L167.399 27.872L163.863 37.936H159.341L161.891 30.83Z" fill="#CCCEEF"/>
<mask id="path-2-inside-1_613_1171" fill="white">
<path fill-rule="evenodd" clip-rule="evenodd" d="M30.1735 30.1735C35.4056 27.5654 38.9997 22.1616 38.9997 15.9184C38.9997 7.12691 31.8728 0 23.0814 0C16.8381 0 11.4342 3.59423 8.82617 8.82638C10.9617 7.76186 13.3701 7.16309 15.9184 7.16309C24.7098 7.16309 31.8367 14.29 31.8367 23.0815C31.8367 25.6297 31.238 28.038 30.1735 30.1735Z"/>
</mask>
<path fill-rule="evenodd" clip-rule="evenodd" d="M30.1735 30.1735C35.4056 27.5654 38.9997 22.1616 38.9997 15.9184C38.9997 7.12691 31.8728 0 23.0814 0C16.8381 0 11.4342 3.59423 8.82617 8.82638C10.9617 7.76186 13.3701 7.16309 15.9184 7.16309C24.7098 7.16309 31.8367 14.29 31.8367 23.0815C31.8367 25.6297 31.238 28.038 30.1735 30.1735Z" fill="#CCCEEF"/>
<path d="M30.1735 30.1735L29.2786 29.7274L27.9456 32.4014L30.6197 31.0685L30.1735 30.1735ZM8.82617 8.82638L7.9312 8.38027L6.59828 11.0543L9.2723 9.72135L8.82617 8.82638ZM37.9997 15.9184C37.9997 21.768 34.6332 26.8331 29.7274 29.2785L30.6197 31.0685C36.178 28.2977 39.9997 22.5553 39.9997 15.9184H37.9997ZM23.0814 1C31.3206 1 37.9997 7.67919 37.9997 15.9184H39.9997C39.9997 6.57462 32.4251 -1 23.0814 -1V1ZM9.72115 9.2725C12.1666 4.3666 17.2317 1 23.0814 1V-1C16.4444 -1 10.7019 2.82185 7.9312 8.38027L9.72115 9.2725ZM9.2723 9.72135C11.2724 8.72435 13.5284 8.16309 15.9184 8.16309V6.16309C13.2118 6.16309 10.651 6.79937 8.38005 7.93141L9.2723 9.72135ZM15.9184 8.16309C24.1576 8.16309 30.8367 14.8423 30.8367 23.0815H32.8367C32.8367 13.7377 25.2621 6.16309 15.9184 6.16309V8.16309ZM30.8367 23.0815C30.8367 25.4714 30.2755 27.7273 29.2786 29.7274L31.0685 30.6196C32.2005 28.3487 32.8367 25.7879 32.8367 23.0815H30.8367Z" fill="#070710" mask="url(#path-2-inside-1_613_1171)"/>
<mask id="path-4-inside-2_613_1171" fill="white">
<path fill-rule="evenodd" clip-rule="evenodd" d="M15.9184 38.9999C24.7099 38.9999 31.8368 31.873 31.8368 23.0815C31.8368 14.29 24.7099 7.16309 15.9184 7.16309C7.12691 7.16309 0 14.29 0 23.0815C0 26.4755 1.06221 29.6215 2.87233 32.205C2.9621 32.0782 3.06568 31.9551 3.1839 31.8369L10.3472 25.4695C9.55124 24.6736 7.9594 21.4899 7.56144 19.1021L23.4798 15.5205L19.8982 31.4389C17.5104 31.0409 15.1227 29.8471 13.5308 28.6532L7.1635 35.8165C7.04493 35.935 6.92491 36.0406 6.80398 36.1339C9.38582 37.9402 12.5284 38.9999 15.9184 38.9999Z"/>
</mask>
<path fill-rule="evenodd" clip-rule="evenodd" d="M15.9184 38.9999C24.7099 38.9999 31.8368 31.873 31.8368 23.0815C31.8368 14.29 24.7099 7.16309 15.9184 7.16309C7.12691 7.16309 0 14.29 0 23.0815C0 26.4755 1.06221 29.6215 2.87233 32.205C2.9621 32.0782 3.06568 31.9551 3.1839 31.8369L10.3472 25.4695C9.55124 24.6736 7.9594 21.4899 7.56144 19.1021L23.4798 15.5205L19.8982 31.4389C17.5104 31.0409 15.1227 29.8471 13.5308 28.6532L7.1635 35.8165C7.04493 35.935 6.92491 36.0406 6.80398 36.1339C9.38582 37.9402 12.5284 38.9999 15.9184 38.9999Z" fill="#CCCEEF"/>
<path d="M2.87233 32.205L2.05334 32.7788L2.86825 33.9419L3.68861 32.7827L2.87233 32.205ZM3.1839 31.8369L2.51953 31.0895L2.49757 31.109L2.4768 31.1297L3.1839 31.8369ZM10.3472 25.4695L11.0115 26.2169L11.8042 25.5123L11.0543 24.7624L10.3472 25.4695ZM7.56144 19.1021L7.34192 18.1265L6.41963 18.3341L6.57504 19.2665L7.56144 19.1021ZM23.4798 15.5205L24.4555 15.74L24.8024 14.1979L23.2603 14.5449L23.4798 15.5205ZM19.8982 31.4389L19.7338 32.4253L20.6663 32.5807L20.8738 31.6584L19.8982 31.4389ZM13.5308 28.6532L14.1308 27.8532L13.3947 27.3011L12.7834 27.9888L13.5308 28.6532ZM7.1635 35.8165L7.8706 36.5236L7.89138 36.5028L7.91091 36.4808L7.1635 35.8165ZM6.80398 36.1339L6.19306 35.3422L5.11595 36.1734L6.23075 36.9533L6.80398 36.1339ZM30.8368 23.0815C30.8368 31.3207 24.1576 37.9999 15.9184 37.9999V39.9999C25.2622 39.9999 32.8368 32.4252 32.8368 23.0815H30.8368ZM15.9184 8.16309C24.1576 8.16309 30.8368 14.8423 30.8368 23.0815H32.8368C32.8368 13.7377 25.2622 6.16309 15.9184 6.16309V8.16309ZM1 23.0815C1 14.8423 7.67919 8.16309 15.9184 8.16309V6.16309C6.57462 6.16309 -1 13.7377 -1 23.0815H1ZM3.69132 31.6312C1.99518 29.2103 1 26.2636 1 23.0815H-1C-1 26.6874 0.129241 30.0326 2.05334 32.7788L3.69132 31.6312ZM2.4768 31.1297C2.31955 31.287 2.17926 31.4533 2.05605 31.6274L3.68861 32.7827C3.74495 32.7031 3.81182 32.6231 3.891 32.544L2.4768 31.1297ZM9.68279 24.7221L2.51953 31.0895L3.84826 32.5843L11.0115 26.2169L9.68279 24.7221ZM6.57504 19.2665C6.79394 20.5799 7.32878 22.0619 7.896 23.2994C8.18221 23.9239 8.48477 24.5038 8.77353 24.9873C9.05169 25.4531 9.35126 25.8878 9.64005 26.1766L11.0543 24.7624C10.9451 24.6532 10.7472 24.3915 10.4906 23.9619C10.2446 23.55 9.97511 23.0355 9.71413 22.4661C9.18695 21.3159 8.72689 20.0121 8.54783 18.9377L6.57504 19.2665ZM23.2603 14.5449L7.34192 18.1265L7.78095 20.0778L23.6994 16.4961L23.2603 14.5449ZM20.8738 31.6584L24.4555 15.74L22.5042 15.301L18.9226 31.2194L20.8738 31.6584ZM12.9308 29.4532C14.6252 30.724 17.1592 31.9962 19.7338 32.4253L20.0626 30.4525C17.8617 30.0857 15.6201 28.9701 14.1308 27.8532L12.9308 29.4532ZM7.91091 36.4808L14.2782 29.3175L12.7834 27.9888L6.41609 35.1521L7.91091 36.4808ZM7.41491 36.9256C7.57136 36.8049 7.72336 36.6708 7.8706 36.5236L6.45639 35.1094C6.3665 35.1992 6.27847 35.2763 6.19306 35.3422L7.41491 36.9256ZM15.9184 37.9999C12.74 37.9999 9.79648 37.007 7.37722 35.3145L6.23075 36.9533C8.97516 38.8733 12.3167 39.9999 15.9184 39.9999V37.9999Z" fill="#070710" mask="url(#path-4-inside-2_613_1171)"/>
<path opacity="0.4" fill-rule="evenodd" clip-rule="evenodd" d="M8.82725 8.82627C10.9627 7.76182 13.371 7.16309 15.9192 7.16309C24.7107 7.16309 31.8376 14.29 31.8376 23.0815C31.8376 25.6296 31.2389 28.038 30.1744 30.1734C28.0389 31.2379 25.6306 31.8366 23.0825 31.8366C14.291 31.8366 7.16406 24.7097 7.16406 15.9182C7.16406 13.3701 7.76279 10.9617 8.82725 8.82627Z" fill="#7130C3"/>
</svg>
