<svg viewBox="0 0 26 24" xmlns="http://www.w3.org/2000/svg">
	<path d="M20.5 0.75H5.5C2.7375 0.75 0.5 2.975 0.5 5.7125V18.2875C0.5 21.025 2.7375 23.25 5.5 23.25H20.5C23.2625 23.25 25.5 21.025 25.5 18.2875V5.7125C25.5 2.975 23.2625 0.75 20.5 0.75ZM8.625 5.9625C10.2125 5.9625 11.5125 7.2625 11.5125 8.85C11.5125 10.4375 10.2125 11.7375 8.625 11.7375C7.0375 11.7375 5.7375 10.4375 5.7375 8.85C5.7375 7.2625 7.0375 5.9625 8.625 5.9625ZM13.4625 17.825C13.35 17.95 13.175 18.025 13 18.025H4.25C4.075 18.025 3.9 17.95 3.7875 17.825C3.675 17.7 3.6125 17.525 3.625 17.35C3.8375 15.25 5.5125 13.5875 7.6125 13.3875C8.275 13.325 8.9625 13.325 9.625 13.3875C11.725 13.5875 13.4125 15.25 13.6125 17.35C13.6375 17.525 13.575 17.7 13.4625 17.825ZM21.75 17.9375H19.25C18.7375 17.9375 18.3125 17.5125 18.3125 17C18.3125 16.4875 18.7375 16.0625 19.25 16.0625H21.75C22.2625 16.0625 22.6875 16.4875 22.6875 17C22.6875 17.5125 22.2625 17.9375 21.75 17.9375ZM21.75 12.9375H16.75C16.2375 12.9375 15.8125 12.5125 15.8125 12C15.8125 11.4875 16.2375 11.0625 16.75 11.0625H21.75C22.2625 11.0625 22.6875 11.4875 22.6875 12C22.6875 12.5125 22.2625 12.9375 21.75 12.9375ZM21.75 7.9375H15.5C14.9875 7.9375 14.5625 7.5125 14.5625 7C14.5625 6.4875 14.9875 6.0625 15.5 6.0625H21.75C22.2625 6.0625 22.6875 6.4875 22.6875 7C22.6875 7.5125 22.2625 7.9375 21.75 7.9375Z" fill="#C5F57D"/>
</svg>